<svg width="180" height="190" viewBox="0 0 180 190" fill="none" xmlns="http://www.w3.org/2000/svg">
<g clip-path="url(#clip0_1563_22280)">
<path d="M89.9999 188.999C93.0816 188.994 96.1024 188.139 98.73 186.529L160.73 148.869C163.517 147.11 165.807 144.666 167.383 141.771C168.958 138.875 169.766 135.625 169.73 132.329V57.6193C169.763 54.3239 168.954 51.0747 167.379 48.1799C165.804 45.2852 163.515 42.841 160.73 41.0792L98.73 3.41919C96.0958 1.83381 93.0794 0.996094 90.0049 0.996094C86.9304 0.996094 83.9141 1.83381 81.2799 3.41919L19.2799 41.0992C16.4935 42.8596 14.2038 45.3034 12.6285 48.1985C11.0532 51.0935 10.2447 54.3435 10.2799 57.6392V132.339C10.2614 135.122 10.8361 137.877 11.9655 140.42C13.0949 142.963 14.7532 145.237 16.83 147.089V147.089L81.24 186.519C83.8769 188.134 86.9076 188.993 89.9999 188.999V188.999ZM90.6499 7.99927C92.6499 7.99927 95.0799 9.20916 96.7899 10.2592L157.55 47.4492C161.3 49.7292 163.42 56.3292 163.42 61.0792L162.79 132.379C162.79 137.129 159.59 141.379 155.79 143.679L95.3899 180.059C91.9599 182.149 89.17 182.149 85.73 180.059L24.5199 143.589C20.7699 141.309 17.7499 137.109 17.7499 132.379V58.6892C17.7817 56.3234 18.3905 54.0012 19.5232 51.924C20.6559 49.8467 22.2784 48.0772 24.2499 46.7692L84.83 10.2092C86.58 9.16923 88.6999 7.94922 90.6499 7.94922V7.99927Z" fill="url(#paint0_linear_1563_22280)"/>
<path fill-rule="evenodd" clip-rule="evenodd" d="M97.8999 11.5302C95.5272 10.0601 92.7912 9.28125 89.9999 9.28125C87.2086 9.28125 84.4728 10.0601 82.1 11.5302L25.97 45.8602C23.4434 47.4716 21.3703 49.7017 19.9474 52.3391C18.5246 54.9765 17.7992 57.9337 17.84 60.9302V129.03C17.8002 132.026 18.526 134.983 19.9488 137.62C21.3715 140.258 23.4441 142.488 25.97 144.1L82.1 178.43C84.4728 179.9 87.2086 180.679 89.9999 180.679C92.7912 180.679 95.5272 179.9 97.8999 178.43L154.03 144.1C156.555 142.487 158.626 140.256 160.049 137.619C161.471 134.982 162.198 132.026 162.16 129.03V60.9302C162.198 57.9342 161.471 54.9781 160.049 52.3412C158.626 49.7043 156.555 47.4737 154.03 45.8602L97.8999 11.5302Z" fill="url(#paint1_linear_1563_22280)"/>
<path d="M22.3101 120.18L31.54 125.47L22.39 130.73L17.79 128.09V128.62L21.9501 131.01L18.27 133.13L18.41 133.56L22.41 131.27L31.6001 136.55L22.4801 141.79L20.8301 140.84L21.04 141.47L89.55 181.07L89.9801 180.78L80.65 175.4L89.92 170.07L99.1201 175.35L99.53 175.07L90.38 169.8L99.6101 164.49L108.97 169.86L109.2 169.45L100.08 164.23L109.2 158.99L118.44 164.3L118.77 163.94L109.67 158.71L118.87 153.43L128.06 158.71L128.6 158.5L119.31 153.17L128.54 147.87L137.68 153.12L138.22 152.91L128.99 147.61L138.13 142.35L147.28 147.61L147.81 147.4L138.58 142.1L147.81 136.79L156.9 142.02L157.43 141.81L148.25 136.54L157.43 131.26L162.12 133.95V133.46L157.85 131L162.39 128.39V127.86L157.39 130.75L148.22 125.48L157.48 120.15L162.66 123.15V122.64L119.36 97.6399L100.1 86.5199L99.91 86.45L90.52 81.0299L90.0901 80.75L18.3101 121.97V122.51L22.3101 120.18ZM22.8401 130.99L31.9801 125.72L41.2001 131.01L32.03 136.28L22.8401 130.99ZM80.67 130.99L89.9 125.69L99.04 130.93L89.8101 136.24L80.67 130.99ZM89.3701 136.5L80.16 141.79L71.02 136.54L80.2301 131.25L89.3701 136.5ZM90.3701 125.43L99.52 120.17L108.65 125.42L99.5 130.68L90.3701 125.43ZM89.92 125.17L80.6901 119.87L89.8501 114.61L99.0801 119.91L89.92 125.17ZM89.4801 125.43L80.25 130.73L71.02 125.43L80.25 120.13L89.4801 125.43ZM79.8 130.99L70.5901 136.28L61.3601 130.98L70.5701 125.69L79.8 130.99ZM70.13 136.55L60.9801 141.81L51.7401 136.51L60.9 131.24L70.13 136.55ZM70.5801 136.8L79.7201 142.05L70.5801 147.31L61.42 142.06L70.5801 136.8ZM80.16 142.31L89.39 147.61L80.26 152.86L71.02 147.57L80.16 142.31ZM80.63 142.04L89.8301 136.75L99.0601 142.05L89.8601 147.35L80.63 142.04ZM90.28 136.5L99.5 131.19L108.73 136.49L99.51 141.8L90.28 136.5ZM99.9501 130.93L109.1 125.67L118.33 130.98L109.18 136.24L99.9501 130.93ZM109.54 125.42L118.77 120.11L128 125.42L118.77 130.72L109.54 125.42ZM109.1 125.16L99.9701 119.91L109.2 114.61L118.32 119.86L109.1 125.16ZM99.52 119.66L90.29 114.35L99.52 109.05L108.75 114.35L99.52 119.66ZM89.8501 114.1L80.6901 108.83L89.92 103.53L99.0801 108.79L89.8501 114.1ZM89.4 114.35L80.25 119.62L71.0801 114.35L80.2401 109.09L89.4 114.35ZM79.8 119.87L70.5701 125.17L61.41 119.91L70.64 114.61L79.8 119.87ZM70.13 125.43L60.91 130.73L51.75 125.46L60.9601 120.17L70.13 125.43ZM60.4601 130.99L51.29 136.25L42.1201 130.99L51.3101 125.69L60.4601 130.99ZM50.8301 136.52L41.66 141.79L32.5 136.52L41.66 131.26L50.8301 136.52ZM51.28 136.77L60.52 142.07L51.3301 147.35L42.1001 142.05L51.28 136.77ZM60.9601 142.33L70.1101 147.58L60.91 152.87L51.77 147.61L60.9601 142.33ZM70.5601 147.83L79.79 153.13L70.5801 158.43L61.3601 153.12L70.5601 147.83ZM80.2401 153.39L89.52 158.71L80.3 164.01L71.03 158.68L80.2401 153.39ZM80.7101 153.12L89.8401 147.87L99.1101 153.2L89.9901 158.44L80.7101 153.12ZM90.3 147.6L99.51 142.31L108.78 147.64L99.5801 152.93L90.3 147.6ZM99.9501 142.05L109.18 136.75L118.45 142.08L109.22 147.38L99.9501 142.05ZM109.62 136.49L118.77 131.23L128.04 136.56L118.9 141.82L109.62 136.49ZM119.22 130.98L128.44 125.67L137.72 131L128.49 136.3L119.22 130.98ZM128.89 125.42L138.06 120.14L147.34 125.47L138.16 130.74L128.89 125.42ZM128.44 125.16L119.22 119.86L128.39 114.58L137.62 119.89L128.44 125.16ZM118.77 119.6L109.64 114.35L118.81 109.08L127.94 114.33L118.77 119.6ZM109.2 114.1L99.9701 108.79L109.14 103.53L118.37 108.83L109.2 114.1ZM99.52 108.54L90.3601 103.27L99.53 98.0099L108.69 103.27L99.52 108.54ZM89.92 103.02L80.65 97.6899L89.8 92.4199L99.0801 97.75L89.92 103.02ZM89.4701 103.27L80.2401 108.58L70.9901 103.26L80.2101 97.95L89.4701 103.27ZM79.8 108.83L70.64 114.1L61.4 108.79L70.55 103.52L79.8 108.83ZM70.1901 114.35L60.9601 119.65L51.7301 114.35L60.9501 109.04L70.1901 114.35ZM60.52 119.91L51.3 125.21L42.0801 119.91L51.29 114.61L60.52 119.91ZM50.8501 125.47L41.6801 130.74L32.4601 125.45L41.63 120.17L50.8501 125.47ZM22.8501 142.04L31.9701 136.8L41.13 142.06L31.9901 147.32L22.8501 142.04ZM32.4301 147.58L41.5801 142.32L50.8 147.62L41.63 152.89L32.4301 147.58ZM42.0801 153.15L51.25 147.88L60.4 153.13L51.2001 158.42L42.0801 153.15ZM51.65 158.68L60.8401 153.39L70.0701 158.69L60.8501 163.99L51.65 158.68ZM61.3 164.25L70.52 158.95L79.79 164.28L70.55 169.59L61.3 164.25ZM80.13 175.13L70.9901 169.85L80.2401 164.53L89.4 169.8L80.13 175.13ZM89.8501 169.54L80.6901 164.27L89.92 158.97L99.0901 164.23L89.8501 169.54ZM99.5601 163.96L90.38 158.7L99.51 153.45L108.67 158.72L99.5601 163.96ZM109.14 158.45L99.9801 153.18L109.17 147.89L118.34 153.16L109.14 158.45ZM118.79 152.9L109.62 147.64L118.85 142.33L128.01 147.6L118.79 152.9ZM128.46 147.34L119.29 142.08L128.44 136.82L137.61 142.09L128.46 147.34ZM138.05 141.83L128.89 136.56L138.11 131.26L147.28 136.53L138.05 141.83ZM156.9 130.99L147.73 136.27L138.56 131L147.73 125.72L156.9 130.99ZM156.99 119.89L147.73 125.21L138.46 119.88L147.74 114.54L156.99 119.89ZM147.3 114.29L138.01 119.63L128.78 114.33L138.09 108.97L147.3 114.29ZM137.65 108.72L128.34 114.07L119.21 108.83L128.55 103.46L137.65 108.72ZM128.1 103.2L118.76 108.57L109.53 103.27L118.9 97.8899L128.1 103.2ZM118.45 97.6299L109.09 103.01L99.92 97.75L109.31 92.36L118.45 97.6299ZM108.87 92.1L99.4801 97.49L90.2001 92.1699L99.6001 86.75L108.87 92.1ZM90.0601 81.24L99.16 86.49L89.75 91.9099L80.6101 86.6599L90.0601 81.24ZM80.17 86.9199L89.3101 92.1699L80.16 97.4399L71.01 92.1799L80.17 86.9199ZM70.5601 92.4299L79.7101 97.6899L70.4901 103L61.3301 97.74L70.5601 92.4299ZM60.88 97.99L70.05 103.26L60.9 108.53L51.7201 103.26L60.88 97.99ZM51.28 103.51L60.4501 108.79L51.2401 114.09L42.04 108.81L51.28 103.51ZM41.6001 109.07L50.79 114.35L41.5801 119.65L32.38 114.37L41.6001 109.07ZM31.9301 114.62L41.13 119.91L31.9601 125.2L22.7301 119.9L31.9301 114.62Z" fill="white"/>
<path fill-rule="evenodd" clip-rule="evenodd" d="M90.4298 10.75C92.1098 10.75 93.9999 11.62 96.0599 12.87L154.54 48.4099C156.432 49.6229 157.982 51.2999 159.043 53.2814C160.104 55.2628 160.64 57.4828 160.6 59.73V130.21C160.639 132.457 160.102 134.677 159.042 136.658C157.981 138.639 156.431 140.316 154.54 141.53L96.0699 177.07C94.4624 178.327 92.4804 179.01 90.4399 179.01C88.3993 179.01 86.4174 178.327 84.8099 177.07L26.3098 141.54C24.5273 140.587 23.0035 139.214 21.8699 137.54C20.8699 135.94 20.2498 133.72 20.2498 130.26V59.7799C20.2101 57.5328 20.7462 55.3129 21.8069 53.3314C22.8677 51.35 24.4178 49.673 26.3098 48.46L84.7698 12.9199C86.8798 11.6299 88.7398 10.75 90.4298 10.75ZM98.1398 180.5L156.61 144.96C159.092 143.392 161.131 141.214 162.532 138.633C163.932 136.053 164.648 133.156 164.61 130.22V59.74C164.648 56.8041 163.932 53.9074 162.532 51.3268C161.131 48.7462 159.092 46.5679 156.61 45L98.1398 9.45996C96.0298 8.17996 93.3198 6.75 90.4298 6.75C87.5398 6.75 84.8199 8.18995 82.7299 9.44995L24.2598 45C21.7773 46.5679 19.7384 48.7462 18.3378 51.3268C16.9372 53.9074 16.2217 56.8041 16.2598 59.74V130.22C16.1075 133.484 16.8695 136.726 18.4599 139.58C19.9149 141.819 21.9004 143.663 24.2399 144.95L82.6999 180.49C84.9346 182.138 87.6382 183.027 90.4148 183.027C93.1914 183.027 95.895 182.138 98.1298 180.49L98.1398 180.5Z" fill="url(#paint2_linear_1563_22280)"/>
<circle cx="91.5586" cy="96.6084" r="56.8472" fill="url(#paint3_radial_1563_22280)"/>
<g filter="url(#filter0_d_1563_22280)">
<circle cx="91.5584" cy="96.6082" r="41.7977" fill="white"/>
</g>
<g filter="url(#filter1_ddddd_1563_22280)">
<path d="M104.823 118.352H90.8108V76.4336C90.8108 74.9255 92.0361 73.7002 93.5442 73.7002H104.823C106.331 73.7002 107.557 74.9255 107.557 76.4336V115.618C107.557 117.126 106.331 118.352 104.823 118.352Z" fill="url(#paint4_linear_1563_22280)"/>
<path d="M95.7499 118.352H81.3855V87.4807C81.3855 86.1674 82.4537 85.0992 83.767 85.0992H95.7436C97.0568 85.0992 98.1251 86.1674 98.1251 87.4807V115.964C98.1313 117.284 97.0631 118.352 95.7499 118.352Z" fill="url(#paint5_linear_1563_22280)"/>
<path d="M86.0353 118.352H75.4977C73.7822 118.352 72.3936 116.963 72.3936 115.248V99.1426C72.3936 97.4272 73.7822 96.0385 75.4977 96.0385H86.0416C87.757 96.0385 89.1457 97.4272 89.1457 99.1426V115.248C89.1394 116.963 87.7507 118.352 86.0353 118.352Z" fill="url(#paint6_linear_1563_22280)"/>
</g>
<g filter="url(#filter2_d_1563_22280)">
<path d="M149.138 80.8513L119.12 80.6046C118.469 80.5978 117.941 81.1186 117.941 81.7697L117.612 120.937C117.606 121.588 118.126 122.116 118.777 122.116L148.795 122.362C149.446 122.369 149.974 121.848 149.974 121.197L150.296 82.0233C150.296 81.3859 149.782 80.8582 149.138 80.8513Z" fill="#F2F2F2"/>
</g>
<path opacity="0.15" d="M147.048 82.1946H120.861V118.661H147.048V82.1946Z" fill="#1F1D20"/>
<g filter="url(#filter3_d_1563_22280)">
<path d="M147.048 81.7761H120.861V118.243H147.048V81.7761Z" fill="white"/>
</g>
<path fill-rule="evenodd" clip-rule="evenodd" d="M135.52 76.3003C136.37 76.7595 136.863 77.671 136.857 78.6305V78.8635C136.857 78.9526 136.85 79.028 136.843 79.117L138.686 79.1308C139.235 79.1376 139.749 79.4117 140.023 79.8915C140.79 81.2553 139.817 82.6397 138.536 82.626L129.229 82.5574C128.681 82.5506 128.167 82.2765 127.892 81.7967C127.125 80.4329 128.098 79.0485 129.38 79.0622L131.093 79.0759C131.086 78.9937 131.086 78.9114 131.086 78.8223V78.747C131.113 76.6635 133.327 75.1215 135.52 76.3003Z" fill="#243A5E"/>
<path d="M133.944 80.1177C134.602 80.1245 135.137 79.5968 135.144 78.9389C135.151 78.281 134.623 77.7464 133.965 77.7396C133.307 77.7327 132.772 78.2604 132.766 78.9184C132.766 79.5763 133.286 80.1108 133.944 80.1177Z" fill="#E3AA14"/>
<path opacity="0.15" d="M141.597 92.2428C141.597 91.8899 141.308 91.5958 140.95 91.5958H130.923C130.57 91.5958 130.276 91.8845 130.276 92.2428C130.276 92.6011 130.565 92.8899 130.923 92.8899H140.95C141.308 92.8899 141.597 92.6011 141.597 92.2428Z" fill="#1F1D20"/>
<path opacity="0.15" d="M141.597 96.7774C141.597 96.4191 141.308 96.1304 140.95 96.1304H130.923C130.57 96.1304 130.276 96.4191 130.276 96.7774C130.276 97.1357 130.564 97.4299 130.923 97.4299H140.95C141.308 97.4192 141.597 97.1357 141.597 96.7774Z" fill="#1F1D20"/>
<path opacity="0.15" d="M141.597 101.318C141.597 100.96 141.308 100.671 140.95 100.671H130.923C130.57 100.666 130.276 100.954 130.276 101.318C130.276 101.676 130.564 101.965 130.923 101.965H140.95C141.308 101.965 141.597 101.676 141.597 101.318Z" fill="#1F1D20"/>
<path opacity="0.15" d="M126.248 92.8747L125.762 92.3886C125.731 92.3551 125.693 92.3284 125.651 92.3101C125.609 92.2919 125.563 92.2825 125.517 92.2825C125.472 92.2825 125.426 92.2919 125.384 92.3101C125.342 92.3284 125.304 92.3551 125.273 92.3886C125.239 92.4199 125.212 92.4578 125.194 92.4999C125.176 92.542 125.167 92.5874 125.167 92.6333C125.167 92.6792 125.176 92.7246 125.194 92.7667C125.212 92.8088 125.239 92.8467 125.273 92.8781L126.027 93.6324C126.056 93.6627 126.092 93.6868 126.13 93.7033C126.169 93.7197 126.211 93.7282 126.253 93.7282C126.295 93.7282 126.337 93.7197 126.376 93.7033C126.415 93.6868 126.45 93.6627 126.48 93.6324L128.122 91.9896V91.004L126.248 92.8747Z" fill="#1F1D20"/>
<path opacity="0.15" d="M126.248 97.8452L125.762 97.3557C125.731 97.3222 125.693 97.2955 125.651 97.2772C125.609 97.259 125.563 97.2496 125.517 97.2496C125.472 97.2496 125.426 97.259 125.384 97.2772C125.342 97.2955 125.304 97.3222 125.273 97.3557C125.239 97.3871 125.212 97.4252 125.193 97.4676C125.174 97.51 125.165 97.5558 125.165 97.6021C125.165 97.6484 125.174 97.6942 125.193 97.7366C125.212 97.779 125.239 97.8171 125.273 97.8485L126.027 98.6029C126.089 98.6594 126.17 98.6908 126.253 98.6908C126.337 98.6908 126.418 98.6594 126.48 98.6029L128.122 96.9567V95.9744L126.248 97.8452Z" fill="#1F1D20"/>
<path opacity="0.15" d="M126.248 102.829L125.755 102.333C125.724 102.299 125.686 102.272 125.644 102.254C125.602 102.236 125.556 102.227 125.511 102.227C125.465 102.227 125.419 102.236 125.377 102.254C125.335 102.272 125.297 102.299 125.266 102.333C125.232 102.364 125.206 102.402 125.187 102.444C125.169 102.486 125.16 102.531 125.16 102.577C125.16 102.623 125.169 102.669 125.187 102.711C125.206 102.753 125.232 102.791 125.266 102.822L126.02 103.576C126.082 103.633 126.163 103.664 126.246 103.664C126.33 103.664 126.411 103.633 126.473 103.576L128.122 101.934V100.955L126.248 102.829Z" fill="#1F1D20"/>
<path d="M128.947 90.4544C128.915 90.4209 128.877 90.3942 128.835 90.3759C128.793 90.3577 128.748 90.3483 128.702 90.3483C128.656 90.3483 128.611 90.3577 128.569 90.3759C128.526 90.3942 128.489 90.4209 128.457 90.4544L126.251 92.6604L125.765 92.1709C125.734 92.1374 125.696 92.1107 125.654 92.0925C125.612 92.0742 125.566 92.0648 125.52 92.0648C125.474 92.0648 125.429 92.0742 125.387 92.0925C125.345 92.1107 125.307 92.1374 125.276 92.1709C125.242 92.2023 125.215 92.2402 125.197 92.2823C125.179 92.3244 125.169 92.3698 125.169 92.4157C125.169 92.4615 125.179 92.5069 125.197 92.549C125.215 92.5911 125.242 92.629 125.276 92.6604L126.03 93.4147C126.059 93.445 126.094 93.4692 126.133 93.4856C126.172 93.5021 126.214 93.5106 126.256 93.5106C126.298 93.5106 126.34 93.5021 126.379 93.4856C126.418 93.4692 126.453 93.445 126.483 93.4147L128.95 90.9439C128.983 90.9123 129.01 90.8742 129.028 90.832C129.046 90.7898 129.055 90.7443 129.054 90.6984C129.054 90.6525 129.044 90.6072 129.026 90.5652C129.007 90.5232 128.98 90.4855 128.947 90.4544Z" fill="url(#paint7_linear_1563_22280)"/>
<path d="M128.947 95.4046C128.916 95.3711 128.878 95.3444 128.836 95.3262C128.794 95.3079 128.748 95.2985 128.702 95.2985C128.657 95.2985 128.611 95.3079 128.569 95.3262C128.527 95.3444 128.489 95.3711 128.458 95.4046L126.252 97.614L125.766 97.1245C125.734 97.091 125.696 97.0643 125.654 97.0461C125.612 97.0278 125.567 97.0184 125.521 97.0184C125.475 97.0184 125.429 97.0278 125.387 97.0461C125.345 97.0643 125.307 97.091 125.276 97.1245C125.243 97.1559 125.216 97.1938 125.198 97.2359C125.179 97.278 125.17 97.3234 125.17 97.3693C125.17 97.4152 125.179 97.4606 125.198 97.5027C125.216 97.5447 125.243 97.5826 125.276 97.614L126.03 98.3717C126.092 98.4282 126.173 98.4596 126.257 98.4596C126.34 98.4596 126.421 98.4282 126.483 98.3717L128.951 95.8975C128.984 95.8659 129.011 95.8276 129.029 95.785C129.048 95.7425 129.057 95.6966 129.057 95.6503C129.056 95.604 129.047 95.5583 129.028 95.516C129.009 95.4737 128.981 95.4358 128.947 95.4046Z" fill="url(#paint8_linear_1563_22280)"/>
<path d="M128.944 100.405C128.912 100.372 128.874 100.345 128.832 100.327C128.79 100.308 128.745 100.299 128.699 100.299C128.653 100.299 128.608 100.308 128.566 100.327C128.523 100.345 128.486 100.372 128.454 100.405L126.248 102.614L125.755 102.118C125.724 102.085 125.686 102.058 125.644 102.04C125.602 102.022 125.556 102.012 125.511 102.012C125.465 102.012 125.419 102.022 125.377 102.04C125.335 102.058 125.297 102.085 125.266 102.118C125.232 102.15 125.206 102.188 125.187 102.23C125.169 102.272 125.16 102.317 125.16 102.363C125.16 102.409 125.169 102.454 125.187 102.496C125.206 102.539 125.232 102.576 125.266 102.608L126.02 103.362C126.082 103.419 126.163 103.45 126.246 103.45C126.33 103.45 126.411 103.419 126.473 103.362L128.944 100.898C128.978 100.867 129.005 100.828 129.023 100.786C129.042 100.744 129.052 100.698 129.052 100.652C129.052 100.605 129.042 100.559 129.023 100.517C129.005 100.475 128.978 100.437 128.944 100.405Z" fill="url(#paint9_linear_1563_22280)"/>
<path d="M141.597 92.0927C141.597 91.7397 141.308 91.4456 140.95 91.4456H130.923C130.57 91.4456 130.276 91.7344 130.276 92.0927C130.276 92.451 130.565 92.7398 130.923 92.7398H140.95C141.308 92.7398 141.597 92.451 141.597 92.0927Z" fill="url(#paint10_linear_1563_22280)"/>
<path d="M141.597 96.6266C141.597 96.2683 141.308 95.9796 140.95 95.9796H130.923C130.57 95.9796 130.276 96.2683 130.276 96.6266C130.276 96.9849 130.564 97.2791 130.923 97.2791H140.95C141.308 97.2684 141.597 96.9849 141.597 96.6266Z" fill="url(#paint11_linear_1563_22280)"/>
<path d="M141.597 101.167C141.597 100.809 141.308 100.52 140.95 100.52H130.923C130.57 100.515 130.276 100.804 130.276 101.167C130.276 101.525 130.564 101.814 130.923 101.814H140.95C141.308 101.814 141.597 101.525 141.597 101.167Z" fill="url(#paint12_linear_1563_22280)"/>
<path opacity="0.15" d="M145.563 125.366C147.873 125.361 150.086 124.441 151.719 122.808C153.352 121.175 154.272 118.962 154.277 116.653C154.277 114.342 153.359 112.125 151.725 110.491C150.091 108.857 147.874 107.939 145.563 107.939C143.254 107.944 141.04 108.863 139.407 110.496C137.774 112.129 136.855 114.343 136.85 116.653C136.85 117.797 137.075 118.93 137.513 119.987C137.951 121.044 138.592 122.005 139.401 122.814C140.211 123.623 141.172 124.265 142.229 124.703C143.286 125.14 144.419 125.366 145.563 125.366V125.366Z" fill="#1F1D20"/>
<path d="M145.563 124.111C147.874 124.111 150.091 123.193 151.725 121.559C153.359 119.925 154.277 117.709 154.277 115.398C154.277 113.087 153.359 110.871 151.725 109.236C150.091 107.602 147.874 106.684 145.563 106.684C143.254 106.689 141.04 107.609 139.407 109.242C137.774 110.875 136.855 113.088 136.85 115.398C136.85 116.542 137.075 117.675 137.513 118.732C137.951 119.789 138.592 120.75 139.401 121.559C140.211 122.368 141.172 123.01 142.229 123.448C143.286 123.886 144.419 124.111 145.563 124.111V124.111Z" fill="#092D4C"/>
<path d="M146.372 109.865H144.811V120.93H146.372V109.865Z" fill="white"/>
<path d="M151.134 114.703H140.068V116.245H151.134V114.703Z" fill="white"/>
</g>
<defs>
<filter id="filter0_d_1563_22280" x="45.7607" y="54.8105" width="91.5955" height="91.5954" filterUnits="userSpaceOnUse" color-interpolation-filters="sRGB">
<feFlood flood-opacity="0" result="BackgroundImageFix"/>
<feColorMatrix in="SourceAlpha" type="matrix" values="0 0 0 0 0 0 0 0 0 0 0 0 0 0 0 0 0 0 127 0" result="hardAlpha"/>
<feOffset dy="4"/>
<feGaussianBlur stdDeviation="2"/>
<feComposite in2="hardAlpha" operator="out"/>
<feColorMatrix type="matrix" values="0 0 0 0 0 0 0 0 0 0 0 0 0 0 0 0 0 0 0.25 0"/>
<feBlend mode="normal" in2="BackgroundImageFix" result="effect1_dropShadow_1563_22280"/>
<feBlend mode="normal" in="SourceGraphic" in2="effect1_dropShadow_1563_22280" result="shape"/>
</filter>
<filter id="filter1_ddddd_1563_22280" x="65.3936" y="72.7002" width="49.1631" height="70.6519" filterUnits="userSpaceOnUse" color-interpolation-filters="sRGB">
<feFlood flood-opacity="0" result="BackgroundImageFix"/>
<feColorMatrix in="SourceAlpha" type="matrix" values="0 0 0 0 0 0 0 0 0 0 0 0 0 0 0 0 0 0 127 0" result="hardAlpha"/>
<feOffset/>
<feColorMatrix type="matrix" values="0 0 0 0 0 0 0 0 0 0 0 0 0 0 0 0 0 0 0.1 0"/>
<feBlend mode="normal" in2="BackgroundImageFix" result="effect1_dropShadow_1563_22280"/>
<feColorMatrix in="SourceAlpha" type="matrix" values="0 0 0 0 0 0 0 0 0 0 0 0 0 0 0 0 0 0 127 0" result="hardAlpha"/>
<feOffset dy="1"/>
<feGaussianBlur stdDeviation="1"/>
<feColorMatrix type="matrix" values="0 0 0 0 0 0 0 0 0 0 0 0 0 0 0 0 0 0 0.1 0"/>
<feBlend mode="normal" in2="effect1_dropShadow_1563_22280" result="effect2_dropShadow_1563_22280"/>
<feColorMatrix in="SourceAlpha" type="matrix" values="0 0 0 0 0 0 0 0 0 0 0 0 0 0 0 0 0 0 127 0" result="hardAlpha"/>
<feOffset dy="5"/>
<feGaussianBlur stdDeviation="2.5"/>
<feColorMatrix type="matrix" values="0 0 0 0 0 0 0 0 0 0 0 0 0 0 0 0 0 0 0.09 0"/>
<feBlend mode="normal" in2="effect2_dropShadow_1563_22280" result="effect3_dropShadow_1563_22280"/>
<feColorMatrix in="SourceAlpha" type="matrix" values="0 0 0 0 0 0 0 0 0 0 0 0 0 0 0 0 0 0 127 0" result="hardAlpha"/>
<feOffset dy="10"/>
<feGaussianBlur stdDeviation="3"/>
<feColorMatrix type="matrix" values="0 0 0 0 0 0 0 0 0 0 0 0 0 0 0 0 0 0 0.05 0"/>
<feBlend mode="normal" in2="effect3_dropShadow_1563_22280" result="effect4_dropShadow_1563_22280"/>
<feColorMatrix in="SourceAlpha" type="matrix" values="0 0 0 0 0 0 0 0 0 0 0 0 0 0 0 0 0 0 127 0" result="hardAlpha"/>
<feOffset dy="18"/>
<feGaussianBlur stdDeviation="3.5"/>
<feColorMatrix type="matrix" values="0 0 0 0 0 0 0 0 0 0 0 0 0 0 0 0 0 0 0.01 0"/>
<feBlend mode="normal" in2="effect4_dropShadow_1563_22280" result="effect5_dropShadow_1563_22280"/>
<feBlend mode="normal" in="SourceGraphic" in2="effect5_dropShadow_1563_22280" result="shape"/>
</filter>
<filter id="filter2_d_1563_22280" x="113.612" y="78.6046" width="40.6838" height="49.7579" filterUnits="userSpaceOnUse" color-interpolation-filters="sRGB">
<feFlood flood-opacity="0" result="BackgroundImageFix"/>
<feColorMatrix in="SourceAlpha" type="matrix" values="0 0 0 0 0 0 0 0 0 0 0 0 0 0 0 0 0 0 127 0" result="hardAlpha"/>
<feOffset dy="2"/>
<feGaussianBlur stdDeviation="2"/>
<feComposite in2="hardAlpha" operator="out"/>
<feColorMatrix type="matrix" values="0 0 0 0 0 0 0 0 0 0 0 0 0 0 0 0 0 0 0.25 0"/>
<feBlend mode="normal" in2="BackgroundImageFix" result="effect1_dropShadow_1563_22280"/>
<feBlend mode="normal" in="SourceGraphic" in2="effect1_dropShadow_1563_22280" result="shape"/>
</filter>
<filter id="filter3_d_1563_22280" x="116.861" y="79.7761" width="34.1868" height="44.4669" filterUnits="userSpaceOnUse" color-interpolation-filters="sRGB">
<feFlood flood-opacity="0" result="BackgroundImageFix"/>
<feColorMatrix in="SourceAlpha" type="matrix" values="0 0 0 0 0 0 0 0 0 0 0 0 0 0 0 0 0 0 127 0" result="hardAlpha"/>
<feOffset dy="2"/>
<feGaussianBlur stdDeviation="2"/>
<feComposite in2="hardAlpha" operator="out"/>
<feColorMatrix type="matrix" values="0 0 0 0 0 0 0 0 0 0 0 0 0 0 0 0 0 0 0.25 0"/>
<feBlend mode="normal" in2="BackgroundImageFix" result="effect1_dropShadow_1563_22280"/>
<feBlend mode="normal" in="SourceGraphic" in2="effect1_dropShadow_1563_22280" result="shape"/>
</filter>
<linearGradient id="paint0_linear_1563_22280" x1="88.66" y1="187.569" x2="92.57" y2="-84.1509" gradientUnits="userSpaceOnUse">
<stop offset="0.2" stop-color="white"/>
<stop offset="0.63" stop-color="#F4F3F5"/>
<stop offset="1" stop-color="#E8E6DF"/>
</linearGradient>
<linearGradient id="paint1_linear_1563_22280" x1="86.9999" y1="19" x2="90" y2="180.68" gradientUnits="userSpaceOnUse">
<stop offset="0.2" stop-color="white"/>
<stop offset="0.63" stop-color="#F4F3F5"/>
<stop offset="1" stop-color="#E8E6DF"/>
</linearGradient>
<linearGradient id="paint2_linear_1563_22280" x1="93.2616" y1="-9.75414" x2="90.0344" y2="197.151" gradientUnits="userSpaceOnUse">
<stop offset="0.00520833" stop-color="#F8DF70"/>
<stop offset="0.192708" stop-color="#F2CC40"/>
<stop offset="0.583333" stop-color="#E7B116"/>
<stop offset="0.78125" stop-color="#E0A310"/>
<stop offset="0.942708" stop-color="#CA810E"/>
</linearGradient>
<radialGradient id="paint3_radial_1563_22280" cx="0" cy="0" r="1" gradientUnits="userSpaceOnUse" gradientTransform="translate(49.7621 68.1395) rotate(48.6382) scale(124.232 246.246)">
<stop offset="0.00520833" stop-color="#F8DF70"/>
<stop offset="0.192708" stop-color="#F2CC40"/>
<stop offset="0.583333" stop-color="#E7B116"/>
<stop offset="0.78125" stop-color="#E0A310"/>
<stop offset="0.942708" stop-color="#CA810E"/>
</radialGradient>
<linearGradient id="paint4_linear_1563_22280" x1="98.997" y1="77.7843" x2="99.3532" y2="114.833" gradientUnits="userSpaceOnUse">
<stop offset="0.00753769" stop-color="#E0A310"/>
<stop offset="1" stop-color="#CA810E"/>
</linearGradient>
<linearGradient id="paint5_linear_1563_22280" x1="89.3101" y1="86.395" x2="90.3787" y2="125.581" gradientUnits="userSpaceOnUse">
<stop offset="0.00753769" stop-color="#F2CC40"/>
<stop offset="1" stop-color="#E7B116"/>
</linearGradient>
<linearGradient id="paint6_linear_1563_22280" x1="80.3663" y1="97.7562" x2="81.435" y2="123.049" gradientUnits="userSpaceOnUse">
<stop stop-color="#F8E17B"/>
<stop offset="0.5302" stop-color="#F6D856"/>
<stop offset="1" stop-color="#F6D856"/>
</linearGradient>
<linearGradient id="paint7_linear_1563_22280" x1="127.018" y1="90.5917" x2="127.111" y2="94.1803" gradientUnits="userSpaceOnUse">
<stop stop-color="#F8E17B"/>
<stop offset="0.5302" stop-color="#F6D856"/>
<stop offset="1" stop-color="#F6D856"/>
</linearGradient>
<linearGradient id="paint8_linear_1563_22280" x1="127.01" y1="95.4217" x2="127.052" y2="99.1491" gradientUnits="userSpaceOnUse">
<stop offset="0.00753769" stop-color="#F2CC40"/>
<stop offset="1" stop-color="#E7B116"/>
</linearGradient>
<linearGradient id="paint9_linear_1563_22280" x1="127.062" y1="100.587" x2="127.07" y2="103.202" gradientUnits="userSpaceOnUse">
<stop offset="0.00753769" stop-color="#E0A310"/>
<stop offset="1" stop-color="#CA810E"/>
</linearGradient>
<linearGradient id="paint10_linear_1563_22280" x1="135.664" y1="91.5452" x2="135.669" y2="93.0148" gradientUnits="userSpaceOnUse">
<stop stop-color="#F8E17B"/>
<stop offset="0.5302" stop-color="#F6D856"/>
<stop offset="1" stop-color="#F6D856"/>
</linearGradient>
<linearGradient id="paint11_linear_1563_22280" x1="135.635" y1="96.0302" x2="135.638" y2="97.5627" gradientUnits="userSpaceOnUse">
<stop offset="0.00753769" stop-color="#F2CC40"/>
<stop offset="1" stop-color="#E7B116"/>
</linearGradient>
<linearGradient id="paint12_linear_1563_22280" x1="135.81" y1="100.638" x2="135.81" y2="101.712" gradientUnits="userSpaceOnUse">
<stop offset="0.00753769" stop-color="#E0A310"/>
<stop offset="1" stop-color="#CA810E"/>
</linearGradient>
<clipPath id="clip0_1563_22280">
<rect width="180" height="190" fill="white"/>
</clipPath>
</defs>
</svg>
