<svg xmlns="http://www.w3.org/2000/svg" viewBox="0 0 600 600" enable-background="new 0 0 600 600"><style>.st2{fill:#fff}.st2,.st4,.st6{fill-rule:evenodd;clip-rule:evenodd}.st4{fill:#546670}.st6{fill:#30404d}.st14{fill:#ceaf98}</style><g id="Graphic"><path fill="none" d="M0 0h600.84v600.84H0z"/><defs><filter id="Adobe_OpacityMaskFilter" filterUnits="userSpaceOnUse" x="113.81" y="80.21" width="456.48" height="439.58"><feColorMatrix values="1 0 0 0 0 0 1 0 0 0 0 0 1 0 0 0 0 0 1 0"/></filter></defs><mask maskUnits="userSpaceOnUse" x="113.81" y="80.21" width="456.48" height="439.58" id="mask-2_2_"><g filter="url(#Adobe_OpacityMaskFilter)"><path id="path-1_2_" class="st2" d="M343.43-82.75c196.36 0 355.54 159.18 355.54 355.54S539.79 628.33 343.43 628.33-12.11 469.15-12.11 272.79c0-196.35 159.18-355.54 355.54-355.54z"/></g></mask><g id="White-Screen_4_" mask="url(#mask-2_2_)"><g transform="translate(17 22)"><path id="Fill-1016_10_" class="st4" d="M392.7 473.44l-53.27-52.88v-22.62c0-7.88-6.44-14.27-14.37-14.27-7.93 0-14.37 6.38-14.37 14.27v22.62l-53.27 52.88a14.19 14.19 0 000 20.17c2.81 2.79 6.48 4.18 10.16 4.18s7.35-1.39 10.16-4.18l32.95-32.71v15.49c0 7.87 6.44 14.27 14.37 14.27 7.93 0 14.37-6.39 14.37-14.27V460.9l32.95 32.71c2.81 2.79 6.48 4.18 10.16 4.18s7.35-1.39 10.16-4.18a14.19 14.19 0 000-20.17"/><path id="Fill-1017_10_" d="M536.39 130.07v256.27c0 7.83-6.4 14.24-14.23 14.24H123.72c-7.83 0-14.23-6.41-14.23-14.24V130.07h426.9" fill-rule="evenodd" clip-rule="evenodd" fill="#e1e4e1"/><path id="Fill-1018_10_" class="st4" d="M327.17 100.48c-8.17 0-14.79-6.31-14.79-14.09V72.3c0-7.78 6.63-14.09 14.79-14.09s14.79 6.3 14.79 14.09v14.09c0 7.78-6.63 14.09-14.79 14.09"/><path id="Fill-1019_10_" class="st6" d="M553.3 123.02c0 3.87-3.21 7.04-7.13 7.04H103.94c-3.92 0-7.13-3.17-7.13-7.04V94.84c0-3.87 3.21-7.04 7.13-7.04h442.22c3.92 0 7.13 3.17 7.13 7.04v28.18"/><path id="Fill-1020_10_" fill-rule="evenodd" clip-rule="evenodd" fill="#c5cccd" d="M109.49 142.75h426.9v-12.68h-426.9z"/><path id="Fill-1022_10_" class="st6" d="M268.38 482.58c-3.45 3.44-9.36 2.56-11.54-1.81-.74-1.48-1.32-2.97-1.73-4.45-3.14 5.49-2.42 12.58 2.26 17.27 2.81 2.81 6.48 4.21 10.17 4.21s7.35-1.4 10.17-4.21l47.35-46.09v-21.56l-56.68 56.64"/><path id="Fill-1023_10_" class="st6" d="M381.73 482.58c3.44 3.44 9.36 2.56 11.54-1.81.74-1.48 1.32-2.97 1.73-4.45 3.14 5.49 2.42 12.58-2.26 17.27a14.315 14.315 0 01-10.17 4.21c-3.68 0-7.35-1.4-10.17-4.21l-47.35-46.09v-21.56l56.68 56.64"/><path id="Fill-1024_10_" class="st6" d="M326.87 442.84v35.05c0 5.04-5.21 8.47-10.16 6.83-1.55-.51-3.01-1.14-4.34-1.85 1.86 6.55 8.31 11.28 15.87 10.64 7.94-.67 13.71-7.64 13.71-15.29v-35.37h-15.08"/><path id="Fill-1025_10_" class="st6" d="M310.78 400.57v6.66h6.76c4.44 0 8.03 3.24 8.03 7.24s3.59 7.24 8.03 7.24h6.76v-21.13h-29.58"/><path id="Fill-1026_10_" d="M103.94 130.07h442.22c3.92 0 7.13-3.17 7.13-7.04V94.84c0-3.87-3.21-7.04-7.13-7.04H325.05v14.09c0 3.89-3.2 7.04-7.13 7.04H96.81v14.09c0 3.88 3.21 7.05 7.13 7.05" fill-rule="evenodd" clip-rule="evenodd" fill="#182a37"/><path id="Fill-1027_10_" class="st6" d="M325.05 73.52V87.8h12.68V74.18c0-.78-.06-1.55-.18-2.29-1.24-7.92-12.5-6.4-12.5 1.63"/></g></g><g id="Group-2" transform="translate(7 37)"><path id="Fill-25" d="M222.55 310.99c-18.76 0-33.97-15.21-33.97-33.97s15.21-33.97 33.97-33.97 33.97 15.21 33.97 33.97-15.21 33.97-33.97 33.97z" fill-rule="evenodd" clip-rule="evenodd" fill="#8c8c8c"/><path class="st2" d="M236.65 267.05a4.104 4.104 0 00-5.83 0l-13.58 13.68-4.91-4.9c-.12-.17-.24-.33-.39-.48a4.104 4.104 0 00-5.83 0c-1.59 1.6-1.6 4.2-.04 5.82l-.05.05 8.31 8.3a4.104 4.104 0 005.83 0l16.47-16.6.01-.01c1.62-1.61 1.62-4.24.01-5.86"/></g><path d="M222.55 233.36c-18.76 0-33.97-15.21-33.97-33.97s15.21-33.97 33.97-33.97 33.97 15.21 33.97 33.97-15.21 33.97-33.97 33.97z" fill-rule="evenodd" clip-rule="evenodd" fill="#7cb65a" transform="translate(7 28)"/><path class="st2" d="M236.65 189.43a4.104 4.104 0 00-5.83 0l-13.58 13.68-4.91-4.9c-.12-.17-.24-.33-.39-.48a4.104 4.104 0 00-5.83 0c-1.59 1.6-1.6 4.2-.04 5.82l-.05.05 8.31 8.3a4.104 4.104 0 005.83 0l16.47-16.6.01-.01c1.62-1.61 1.62-4.24.01-5.86" transform="translate(7 28)"/><path d="M499.37 239.08H289.63a7.65 7.65 0 01-7.65-7.65v-16.65a7.65 7.65 0 017.65-7.65h209.74a7.65 7.65 0 017.65 7.65v16.65c0 4.23-3.42 7.65-7.65 7.65zm-42.7 52.97H289.63a7.65 7.65 0 01-7.65-7.65v-16.65a7.65 7.65 0 017.65-7.65h167.04a7.65 7.65 0 017.65 7.65v16.65c0 4.22-3.43 7.65-7.65 7.65zm-28.12 52.96H289.63a7.65 7.65 0 01-7.65-7.65v-16.65a7.65 7.65 0 017.65-7.65h138.92a7.65 7.65 0 017.65 7.65v16.65c0 4.22-3.43 7.65-7.65 7.65z" fill="#8c8c8c"/><path d="M176.39 397.54l-1.13-13.12c34.45-1.58 58.07-20.85 58.07-20.85-32.44-19.82 1.16-96.51-53.76-122.38-16.33-7.69-22.51 3.77-48.86 4.15-21.82.52-12.08 98.24 3.99 139.63 16.72 43.05 41.69 12.57 41.69 12.57z" opacity=".7" fill="#30404d"/><g transform="translate(3.333 1.667)"><path id="Shape_2_" d="M181.36 243.57c-7.38-6.43-13.62-10.65-18.91-13.33l-.05-.2c-.28-.09-.54-.15-.81-.25-5.64-2.75-10.14-3.68-13.69-3.63-46.92-9.38-64.75 20.38-71.03 37.65-13.55 33.82-3.08 83.11-29.56 99.29 0 0 25.7 15.9 59.93 17.59l2.33-10.57c-5.92-4.25-9.96-13.1-12.88-20.01-.17-.38-.34-.78-.51-1.21-.23-.54-.46-1.1-.67-1.6l.12.12c-2.45-6.96-4.78-17.98-4.78-17.98-1.03-4.52-2.39-11.33-2.86-18.93 2.77-5.76 13.57-29.2 19.3-56.07 0 0 5.94 45.86 72.32 56.07.97 5.84 1.74 12.97 1.42 19.84-1.24 13.54-8.26 28.56-18.96 37.54l1.57 10.63c34.44-1.59 58.07-17.3 58.07-17.3-32.43-19.82-4.58-86.48-40.35-117.65z" fill="#333132"/><path class="st14" d="M176.03 422.92l-39.56 43.83v1.66l-.74-.82-.74.82v-1.66l-59.9-66.38 29.05-6.98 5.43-23.42c3.56 2.37 7.37 4.27 11.35 5.58l55.11 47.37z"/><path d="M196.37 400.37l-20.34 23.46-56.76-49.05c4.32 1.4 10.48 2.94 15.14 2.94 10.12 0 19.57-3.58 27.71-9.8l3.53 25.08 30.72 7.37z" fill="#bc9e88"/><path class="st14" d="M162.18 368.31c10.74-9.01 17.78-24.09 19.03-37.68.32-6.9-.93-14.78-1.9-20.64-66.62-10.24-72.11-55.9-72.11-55.9-5.75 26.97-16.59 50.49-19.37 56.28.46 7.63 1.84 14.81 2.87 19.34 0 0 2.33 11.06 4.79 18.05l-.12-.12c.21.51.45 1.07.67 1.61.17.43.34.84.51 1.21 2.78 6.6 6.6 14.91 12.08 19.38 7.69 5.31 16.46 8.33 25.77 8.33 10.14 0 19.63-3.58 27.79-9.8l-.01-.06z"/><path d="M242.49 493.8c4.14-92.05-55.86-96.41-55.86-96.41l-30.08 23.49c-13.14 10.26-31.59 10.23-44.7-.07l-29.8-23.42s-59.21 13.72-55.51 96.41h215.95z" fill="#df5142"/><circle id="Oval_2_" class="st14" cx="177.9" cy="319.75" r="9.76"/><circle class="st14" cx="93.1" cy="319.75" r="9.76"/></g></g></svg>