<svg width="180" height="190" viewBox="0 0 180 190" fill="none" xmlns="http://www.w3.org/2000/svg">
<path d="M89.9999 188.999C93.0816 188.994 96.1024 188.139 98.73 186.529L160.73 148.869C163.517 147.11 165.807 144.666 167.383 141.771C168.958 138.875 169.766 135.625 169.73 132.329V57.6193C169.763 54.3239 168.954 51.0747 167.379 48.1799C165.804 45.2852 163.515 42.841 160.73 41.0792L98.73 3.41919C96.0958 1.83381 93.0794 0.996094 90.0049 0.996094C86.9304 0.996094 83.9141 1.83381 81.2799 3.41919L19.2799 41.0992C16.4935 42.8596 14.2038 45.3034 12.6285 48.1985C11.0532 51.0935 10.2447 54.3435 10.2799 57.6392V132.339C10.2614 135.122 10.8361 137.877 11.9655 140.42C13.0949 142.963 14.7532 145.237 16.83 147.089L81.24 186.519C83.8769 188.134 86.9076 188.993 89.9999 188.999ZM90.6499 7.99927C92.6499 7.99927 95.0799 9.20916 96.7899 10.2592L157.55 47.4492C161.3 49.7292 163.42 56.3292 163.42 61.0792L162.79 132.379C162.79 137.129 159.59 141.379 155.79 143.679L95.3899 180.059C91.9599 182.149 89.17 182.149 85.73 180.059L24.5199 143.589C20.7699 141.309 17.7499 137.109 17.7499 132.379V58.6892C17.7817 56.3234 18.3905 54.0012 19.5232 51.924C20.6559 49.8467 22.2784 48.0772 24.2499 46.7692L84.83 10.2092C86.58 9.16923 88.6999 7.94922 90.6499 7.94922V7.99927Z" fill="url(#paint0_linear_1708_2353)"/>
<path fill-rule="evenodd" clip-rule="evenodd" d="M97.8999 11.5302C95.5272 10.0601 92.7912 9.28125 89.9999 9.28125C87.2086 9.28125 84.4728 10.0601 82.1 11.5302L25.97 45.8602C23.4434 47.4716 21.3703 49.7017 19.9474 52.3391C18.5246 54.9765 17.7992 57.9337 17.84 60.9302V129.03C17.8002 132.026 18.526 134.983 19.9488 137.62C21.3715 140.258 23.4441 142.488 25.97 144.1L82.1 178.43C84.4728 179.9 87.2086 180.679 89.9999 180.679C92.7912 180.679 95.5272 179.9 97.8999 178.43L154.03 144.1C156.555 142.487 158.626 140.256 160.049 137.619C161.471 134.982 162.198 132.026 162.16 129.03V60.9302C162.198 57.9342 161.471 54.9781 160.049 52.3412C158.626 49.7043 156.555 47.4737 154.03 45.8602L97.8999 11.5302Z" fill="url(#paint1_linear_1708_2353)"/>
<path d="M22.3101 120.18L31.54 125.47L22.39 130.73L17.79 128.09V128.62L21.9501 131.01L18.27 133.13L18.41 133.56L22.41 131.27L31.6001 136.55L22.4801 141.79L20.8301 140.84L21.04 141.47L89.55 181.07L89.9801 180.78L80.65 175.4L89.92 170.07L99.1201 175.35L99.53 175.07L90.38 169.8L99.6101 164.49L108.97 169.86L109.2 169.45L100.08 164.23L109.2 158.99L118.44 164.3L118.77 163.94L109.67 158.71L118.87 153.43L128.06 158.71L128.6 158.5L119.31 153.17L128.54 147.87L137.68 153.12L138.22 152.91L128.99 147.61L138.13 142.35L147.28 147.61L147.81 147.4L138.58 142.1L147.81 136.79L156.9 142.02L157.43 141.81L148.25 136.54L157.43 131.26L162.12 133.95V133.46L157.85 131L162.39 128.39V127.86L157.39 130.75L148.22 125.48L157.48 120.15L162.66 123.15V122.64L119.36 97.6399L100.1 86.5199L99.91 86.45L90.52 81.0299L90.0901 80.75L18.3101 121.97V122.51L22.3101 120.18ZM22.8401 130.99L31.9801 125.72L41.2001 131.01L32.03 136.28L22.8401 130.99ZM80.67 130.99L89.9 125.69L99.04 130.93L89.8101 136.24L80.67 130.99ZM89.3701 136.5L80.16 141.79L71.02 136.54L80.2301 131.25L89.3701 136.5ZM90.3701 125.43L99.52 120.17L108.65 125.42L99.5 130.68L90.3701 125.43ZM89.92 125.17L80.6901 119.87L89.8501 114.61L99.0801 119.91L89.92 125.17ZM89.4801 125.43L80.25 130.73L71.02 125.43L80.25 120.13L89.4801 125.43ZM79.8 130.99L70.5901 136.28L61.3601 130.98L70.5701 125.69L79.8 130.99ZM70.13 136.55L60.9801 141.81L51.7401 136.51L60.9 131.24L70.13 136.55ZM70.5801 136.8L79.7201 142.05L70.5801 147.31L61.42 142.06L70.5801 136.8ZM80.16 142.31L89.39 147.61L80.26 152.86L71.02 147.57L80.16 142.31ZM80.63 142.04L89.8301 136.75L99.0601 142.05L89.8601 147.35L80.63 142.04ZM90.28 136.5L99.5 131.19L108.73 136.49L99.51 141.8L90.28 136.5ZM99.9501 130.93L109.1 125.67L118.33 130.98L109.18 136.24L99.9501 130.93ZM109.54 125.42L118.77 120.11L128 125.42L118.77 130.72L109.54 125.42ZM109.1 125.16L99.9701 119.91L109.2 114.61L118.32 119.86L109.1 125.16ZM99.52 119.66L90.29 114.35L99.52 109.05L108.75 114.35L99.52 119.66ZM89.8501 114.1L80.6901 108.83L89.92 103.53L99.0801 108.79L89.8501 114.1ZM89.4 114.35L80.25 119.62L71.0801 114.35L80.2401 109.09L89.4 114.35ZM79.8 119.87L70.5701 125.17L61.41 119.91L70.64 114.61L79.8 119.87ZM70.13 125.43L60.91 130.73L51.75 125.46L60.9601 120.17L70.13 125.43ZM60.4601 130.99L51.29 136.25L42.1201 130.99L51.3101 125.69L60.4601 130.99ZM50.8301 136.52L41.66 141.79L32.5 136.52L41.66 131.26L50.8301 136.52ZM51.28 136.77L60.52 142.07L51.3301 147.35L42.1001 142.05L51.28 136.77ZM60.9601 142.33L70.1101 147.58L60.91 152.87L51.77 147.61L60.9601 142.33ZM70.5601 147.83L79.79 153.13L70.5801 158.43L61.3601 153.12L70.5601 147.83ZM80.2401 153.39L89.52 158.71L80.3 164.01L71.03 158.68L80.2401 153.39ZM80.7101 153.12L89.8401 147.87L99.1101 153.2L89.9901 158.44L80.7101 153.12ZM90.3 147.6L99.51 142.31L108.78 147.64L99.5801 152.93L90.3 147.6ZM99.9501 142.05L109.18 136.75L118.45 142.08L109.22 147.38L99.9501 142.05ZM109.62 136.49L118.77 131.23L128.04 136.56L118.9 141.82L109.62 136.49ZM119.22 130.98L128.44 125.67L137.72 131L128.49 136.3L119.22 130.98ZM128.89 125.42L138.06 120.14L147.34 125.47L138.16 130.74L128.89 125.42ZM128.44 125.16L119.22 119.86L128.39 114.58L137.62 119.89L128.44 125.16ZM118.77 119.6L109.64 114.35L118.81 109.08L127.94 114.33L118.77 119.6ZM109.2 114.1L99.9701 108.79L109.14 103.53L118.37 108.83L109.2 114.1ZM99.52 108.54L90.3601 103.27L99.53 98.0099L108.69 103.27L99.52 108.54ZM89.92 103.02L80.65 97.6899L89.8 92.4199L99.0801 97.75L89.92 103.02ZM89.4701 103.27L80.2401 108.58L70.9901 103.26L80.2101 97.95L89.4701 103.27ZM79.8 108.83L70.64 114.1L61.4 108.79L70.55 103.52L79.8 108.83ZM70.1901 114.35L60.9601 119.65L51.7301 114.35L60.9501 109.04L70.1901 114.35ZM60.52 119.91L51.3 125.21L42.0801 119.91L51.29 114.61L60.52 119.91ZM50.8501 125.47L41.6801 130.74L32.4601 125.45L41.63 120.17L50.8501 125.47ZM22.8501 142.04L31.9701 136.8L41.13 142.06L31.9901 147.32L22.8501 142.04ZM32.4301 147.58L41.5801 142.32L50.8 147.62L41.63 152.89L32.4301 147.58ZM42.0801 153.15L51.25 147.88L60.4 153.13L51.2001 158.42L42.0801 153.15ZM51.65 158.68L60.8401 153.39L70.0701 158.69L60.8501 163.99L51.65 158.68ZM61.3 164.25L70.52 158.95L79.79 164.28L70.55 169.59L61.3 164.25ZM80.13 175.13L70.9901 169.85L80.2401 164.53L89.4 169.8L80.13 175.13ZM89.8501 169.54L80.6901 164.27L89.92 158.97L99.0901 164.23L89.8501 169.54ZM99.5601 163.96L90.38 158.7L99.51 153.45L108.67 158.72L99.5601 163.96ZM109.14 158.45L99.9801 153.18L109.17 147.89L118.34 153.16L109.14 158.45ZM118.79 152.9L109.62 147.64L118.85 142.33L128.01 147.6L118.79 152.9ZM128.46 147.34L119.29 142.08L128.44 136.82L137.61 142.09L128.46 147.34ZM138.05 141.83L128.89 136.56L138.11 131.26L147.28 136.53L138.05 141.83ZM156.9 130.99L147.73 136.27L138.56 131L147.73 125.72L156.9 130.99ZM156.99 119.89L147.73 125.21L138.46 119.88L147.74 114.54L156.99 119.89ZM147.3 114.29L138.01 119.63L128.78 114.33L138.09 108.97L147.3 114.29ZM137.65 108.72L128.34 114.07L119.21 108.83L128.55 103.46L137.65 108.72ZM128.1 103.2L118.76 108.57L109.53 103.27L118.9 97.8899L128.1 103.2ZM118.45 97.6299L109.09 103.01L99.92 97.75L109.31 92.36L118.45 97.6299ZM108.87 92.1L99.4801 97.49L90.2001 92.1699L99.6001 86.75L108.87 92.1ZM90.0601 81.24L99.16 86.49L89.75 91.9099L80.6101 86.6599L90.0601 81.24ZM80.17 86.9199L89.3101 92.1699L80.16 97.4399L71.01 92.1799L80.17 86.9199ZM70.5601 92.4299L79.7101 97.6899L70.4901 103L61.3301 97.74L70.5601 92.4299ZM60.88 97.99L70.05 103.26L60.9 108.53L51.7201 103.26L60.88 97.99ZM51.28 103.51L60.4501 108.79L51.2401 114.09L42.04 108.81L51.28 103.51ZM41.6001 109.07L50.79 114.35L41.5801 119.65L32.38 114.37L41.6001 109.07ZM31.9301 114.62L41.13 119.91L31.9601 125.2L22.7301 119.9L31.9301 114.62Z" fill="white"/>
<path fill-rule="evenodd" clip-rule="evenodd" d="M90.4298 10.75C92.1098 10.75 93.9999 11.62 96.0599 12.87L154.54 48.4099C156.432 49.6229 157.982 51.2999 159.043 53.2814C160.104 55.2628 160.64 57.4828 160.6 59.73V130.21C160.639 132.457 160.102 134.677 159.042 136.658C157.981 138.639 156.431 140.316 154.54 141.53L96.0699 177.07C94.4624 178.327 92.4804 179.01 90.4399 179.01C88.3993 179.01 86.4174 178.327 84.8099 177.07L26.3098 141.54C24.5273 140.587 23.0035 139.214 21.8699 137.54C20.8699 135.94 20.2498 133.72 20.2498 130.26V59.7799C20.2101 57.5328 20.7462 55.3129 21.8069 53.3314C22.8677 51.35 24.4178 49.673 26.3098 48.46L84.7698 12.9199C86.8798 11.6299 88.7398 10.75 90.4298 10.75ZM98.1398 180.5L156.61 144.96C159.092 143.392 161.131 141.214 162.532 138.633C163.932 136.053 164.648 133.156 164.61 130.22V59.74C164.648 56.8041 163.932 53.9074 162.532 51.3268C161.131 48.7462 159.092 46.5679 156.61 45L98.1398 9.45996C96.0298 8.17996 93.3198 6.75 90.4298 6.75C87.5398 6.75 84.8199 8.18995 82.7299 9.44995L24.2598 45C21.7773 46.5679 19.7384 48.7462 18.3378 51.3268C16.9372 53.9074 16.2217 56.8041 16.2598 59.74V130.22C16.1075 133.484 16.8695 136.726 18.4599 139.58C19.9149 141.819 21.9004 143.663 24.2399 144.95L82.6999 180.49C84.9346 182.138 87.6382 183.027 90.4148 183.027C93.1914 183.027 95.895 182.138 98.1298 180.49L98.1398 180.5Z" fill="url(#paint2_linear_1708_2353)"/>
<g filter="url(#filter0_d_1708_2353)">
<path d="M35.8387 140.155H143.151C144.321 140.155 145.279 139.198 145.279 138.028V54.2452H33.7109V138.028C33.7109 139.198 34.6685 140.155 35.8387 140.155Z" fill="white"/>
</g>
<path d="M33.7109 63.5197H145.279V53.519C145.279 52.6147 144.552 51.8877 143.648 51.8877H35.3423C34.4379 51.8877 33.7109 52.6147 33.7109 53.519V63.5197Z" fill="url(#paint3_linear_1708_2353)"/>
<path d="M42.2892 60.772C43.8496 60.772 45.1263 59.513 45.1263 57.9349C45.1263 56.3568 43.8319 55.1155 42.2892 55.1155C40.7288 55.1155 39.4521 56.3745 39.4521 57.9526C39.4521 59.5307 40.6934 60.772 42.2892 60.772Z" fill="white"/>
<path fill-rule="evenodd" clip-rule="evenodd" d="M111.406 84.2436C111.406 83.9196 111.669 83.657 111.993 83.657H132.675V84.8301H112.579V118.754H132.654V119.927H111.993C111.669 119.927 111.406 119.665 111.406 119.341V84.2436Z" fill="#78787D"/>
<path fill-rule="evenodd" clip-rule="evenodd" d="M132.327 102.378H98.2095V101.205H132.327V102.378Z" fill="#78787D"/>
<g filter="url(#filter1_d_1708_2353)">
<path d="M119.103 90.89H134.543C135.731 90.89 136.684 89.9222 136.684 88.7492V78.3971C136.684 77.2241 135.731 76.2563 134.543 76.2563H119.103C117.93 76.2563 116.962 77.2241 116.962 78.3971V88.7492C116.962 89.9369 117.93 90.89 119.103 90.89Z" fill="url(#paint4_linear_1708_2353)"/>
</g>
<g filter="url(#filter2_d_1708_2353)">
<path d="M116.962 95.6405V105.993C116.962 107.18 117.93 108.133 119.103 108.133H134.543C135.731 108.133 136.684 107.166 136.684 105.993V95.6405C136.684 94.4528 135.716 93.4997 134.543 93.4997H119.103C117.93 93.4997 116.962 94.4675 116.962 95.6405Z" fill="url(#paint5_linear_1708_2353)"/>
</g>
<g filter="url(#filter3_d_1708_2353)">
<path d="M116.962 112.885V123.237C116.962 124.424 117.93 125.378 119.103 125.378H134.543C135.731 125.378 136.684 124.41 136.684 123.237V112.885C136.684 111.697 135.716 110.744 134.543 110.744H119.103C117.93 110.744 116.962 111.712 116.962 112.885Z" fill="url(#paint6_linear_1708_2353)"/>
</g>
<g filter="url(#filter4_d_1708_2353)">
<path d="M106.55 96.6269C106.55 95.9005 105.958 95.3087 105.232 95.3087C104.757 95.3087 101.798 95.0486 100.21 93.8111C100.21 93.8111 100.219 93.7932 100.21 93.8111C99.6095 91.6231 98.7307 89.5785 97.6457 87.6416C97.3677 85.8033 99.2687 84.4672 100.139 83.0324C100.291 82.7813 100.381 82.6378 100.434 82.5392C100.596 82.0729 100.506 81.5348 100.139 81.1672C100.139 81.1672 98.6769 79.0778 97.1794 77.5892C95.6818 76.1006 93.4131 74.4417 93.4131 74.4417C92.9019 73.9305 92.059 73.9305 91.5479 74.4417C91.2071 74.7735 88.9563 76.6297 86.9297 76.9256C86.9028 76.9256 86.9028 76.9256 86.9028 76.9256C85.0197 75.8585 82.9034 74.9797 80.7781 74.3789H80.7512C79.2537 73.2759 79.6482 70.9893 79.2537 69.3572C79.2537 68.6309 78.6618 68.039 77.9355 68.039C77.9355 68.039 75.4246 67.5996 73.3083 67.5996C71.192 67.5996 68.4211 68.039 68.4211 68.039C67.6948 68.039 67.1029 68.6309 67.1029 69.3572C67.1029 69.8325 66.8429 72.7917 65.6054 74.3789C63.507 74.9708 61.3011 75.9034 59.4359 76.9436C57.5976 77.2216 56.2614 75.3205 54.8266 74.4507C54.5756 74.2982 54.4321 74.2085 54.3334 74.1547C53.8671 73.9933 53.3291 74.083 52.9614 74.4507C52.9614 74.4507 50.8721 75.9123 49.3835 77.4099C47.8949 78.9074 46.2359 81.1762 46.2359 81.1762C45.7248 81.6873 45.7248 82.5302 46.2359 83.0414C46.5677 83.3731 48.4778 85.6598 48.7289 87.6506V87.6685C47.6886 89.5337 46.774 91.7307 46.1821 93.8291C46.1821 93.8291 46.209 93.7932 46.1821 93.8291C44.8998 95.3894 42.7925 94.932 41.1604 95.3266C40.4341 95.3266 39.8422 95.9184 39.8422 96.6448C39.8422 96.6448 39.4028 99.1557 39.4028 101.272C39.4028 103.388 39.8422 106.159 39.8422 106.159C39.8422 106.885 40.4341 107.477 41.1604 107.477C41.6357 107.477 44.5949 107.737 46.1821 108.975C46.218 108.957 46.2001 109.002 46.2001 109.002C46.8098 111.109 47.6797 113.216 48.7378 115.082C48.7199 115.109 48.7378 115.082 48.7468 115.144C48.9261 117.063 47.1237 118.319 46.2539 119.754C46.1014 120.005 46.0118 120.148 45.958 120.247C45.7965 120.713 45.8862 121.251 46.2539 121.619C46.2539 121.619 47.7155 123.708 49.2131 125.197C50.7106 126.694 52.9794 128.344 52.9794 128.344C53.4905 128.855 54.3334 128.855 54.8446 128.344C55.1764 128.013 57.463 126.102 59.4538 125.851C59.4538 125.851 59.4448 125.86 59.4807 125.869C61.3997 126.936 63.3815 127.779 65.5516 128.371C65.5695 128.38 65.6323 128.398 65.6323 128.398C67.1298 129.501 66.7353 131.788 67.1298 133.42C67.2105 134.155 67.6141 134.621 68.448 134.738C68.448 134.738 70.9589 135.177 73.0752 135.177C75.1915 135.177 77.9624 134.747 77.9624 134.747C78.6887 134.621 79.2806 134.155 79.2806 133.429C79.2806 132.954 79.5406 129.994 80.7781 128.407C80.7781 128.407 80.8319 128.362 80.8857 128.317C83.0917 127.699 84.7686 127.017 86.7145 125.896C86.8131 125.86 86.7055 125.869 86.9387 125.833C88.777 125.555 90.1131 127.457 91.5479 128.326C91.799 128.479 91.9424 128.569 92.0411 128.622C92.5074 128.784 93.0454 128.694 93.4131 128.326C93.4131 128.326 95.5025 126.865 96.991 125.367C98.4886 123.87 100.139 121.601 100.139 121.601C100.65 121.09 100.65 120.247 100.139 119.736C99.8068 119.404 97.8967 117.117 97.6457 115.126C97.6188 114.92 97.6367 114.893 97.6636 114.84C98.7755 112.876 99.475 111.441 100.085 109.217C100.085 109.217 100.058 109.145 100.201 108.957C101.304 107.459 103.591 107.854 105.223 107.459C105.949 107.459 106.541 106.868 106.541 106.141C106.541 106.141 106.981 103.63 106.981 101.514C106.981 99.3978 106.55 96.6269 106.55 96.6269ZM92.7316 101.326C92.7316 112.167 83.9436 120.964 73.0931 120.964C62.2426 120.964 53.4546 112.176 53.4546 101.326C53.4546 90.4842 62.2426 81.6873 73.0931 81.6873C83.9436 81.6873 92.7316 90.4842 92.7316 101.326Z" fill="url(#paint7_linear_1708_2353)"/>
</g>
<circle cx="73.2521" cy="101.59" r="26.9035" fill="url(#paint8_radial_1708_2353)"/>
<g filter="url(#filter5_d_1708_2353)">
<circle cx="73.2519" cy="101.59" r="19.7812" fill="white"/>
</g>
<g filter="url(#filter6_ddddd_1708_2353)">
<path d="M79.5297 111.881H72.8982V92.0427C72.8982 91.329 73.4781 90.7491 74.1918 90.7491H79.5297C80.2434 90.7491 80.8233 91.329 80.8233 92.0427V110.587C80.8233 111.301 80.2434 111.881 79.5297 111.881Z" fill="url(#paint9_linear_1708_2353)"/>
<path d="M75.2356 111.881H68.4375V97.2704C68.4375 96.6489 68.943 96.1433 69.5646 96.1433H75.2326C75.8541 96.1433 76.3597 96.6489 76.3597 97.2704V110.751C76.3626 111.375 75.8571 111.881 75.2356 111.881Z" fill="url(#paint10_linear_1708_2353)"/>
<path d="M70.638 111.881H65.6509C64.8391 111.881 64.1819 111.224 64.1819 110.412V102.79C64.1819 101.978 64.8391 101.321 65.6509 101.321H70.6409C71.4528 101.321 72.11 101.978 72.11 102.79V110.412C72.107 111.224 71.4498 111.881 70.638 111.881Z" fill="url(#paint11_linear_1708_2353)"/>
</g>
<defs>
<filter id="filter0_d_1708_2353" x="29.7109" y="52.2452" width="119.568" height="93.9102" filterUnits="userSpaceOnUse" color-interpolation-filters="sRGB">
<feFlood flood-opacity="0" result="BackgroundImageFix"/>
<feColorMatrix in="SourceAlpha" type="matrix" values="0 0 0 0 0 0 0 0 0 0 0 0 0 0 0 0 0 0 127 0" result="hardAlpha"/>
<feOffset dy="2"/>
<feGaussianBlur stdDeviation="2"/>
<feComposite in2="hardAlpha" operator="out"/>
<feColorMatrix type="matrix" values="0 0 0 0 0 0 0 0 0 0 0 0 0 0 0 0 0 0 0.25 0"/>
<feBlend mode="normal" in2="BackgroundImageFix" result="effect1_dropShadow_1708_2353"/>
<feBlend mode="normal" in="SourceGraphic" in2="effect1_dropShadow_1708_2353" result="shape"/>
</filter>
<filter id="filter1_d_1708_2353" x="112.962" y="73.2563" width="27.7217" height="22.6337" filterUnits="userSpaceOnUse" color-interpolation-filters="sRGB">
<feFlood flood-opacity="0" result="BackgroundImageFix"/>
<feColorMatrix in="SourceAlpha" type="matrix" values="0 0 0 0 0 0 0 0 0 0 0 0 0 0 0 0 0 0 127 0" result="hardAlpha"/>
<feOffset dy="1"/>
<feGaussianBlur stdDeviation="2"/>
<feComposite in2="hardAlpha" operator="out"/>
<feColorMatrix type="matrix" values="0 0 0 0 0 0 0 0 0 0 0 0 0 0 0 0 0 0 0.25 0"/>
<feBlend mode="normal" in2="BackgroundImageFix" result="effect1_dropShadow_1708_2353"/>
<feBlend mode="normal" in="SourceGraphic" in2="effect1_dropShadow_1708_2353" result="shape"/>
</filter>
<filter id="filter2_d_1708_2353" x="112.962" y="90.4997" width="27.7217" height="22.6337" filterUnits="userSpaceOnUse" color-interpolation-filters="sRGB">
<feFlood flood-opacity="0" result="BackgroundImageFix"/>
<feColorMatrix in="SourceAlpha" type="matrix" values="0 0 0 0 0 0 0 0 0 0 0 0 0 0 0 0 0 0 127 0" result="hardAlpha"/>
<feOffset dy="1"/>
<feGaussianBlur stdDeviation="2"/>
<feComposite in2="hardAlpha" operator="out"/>
<feColorMatrix type="matrix" values="0 0 0 0 0 0 0 0 0 0 0 0 0 0 0 0 0 0 0.25 0"/>
<feBlend mode="normal" in2="BackgroundImageFix" result="effect1_dropShadow_1708_2353"/>
<feBlend mode="normal" in="SourceGraphic" in2="effect1_dropShadow_1708_2353" result="shape"/>
</filter>
<filter id="filter3_d_1708_2353" x="112.962" y="107.744" width="27.7217" height="22.6337" filterUnits="userSpaceOnUse" color-interpolation-filters="sRGB">
<feFlood flood-opacity="0" result="BackgroundImageFix"/>
<feColorMatrix in="SourceAlpha" type="matrix" values="0 0 0 0 0 0 0 0 0 0 0 0 0 0 0 0 0 0 127 0" result="hardAlpha"/>
<feOffset dy="1"/>
<feGaussianBlur stdDeviation="2"/>
<feComposite in2="hardAlpha" operator="out"/>
<feColorMatrix type="matrix" values="0 0 0 0 0 0 0 0 0 0 0 0 0 0 0 0 0 0 0.25 0"/>
<feBlend mode="normal" in2="BackgroundImageFix" result="effect1_dropShadow_1708_2353"/>
<feBlend mode="normal" in="SourceGraphic" in2="effect1_dropShadow_1708_2353" result="shape"/>
</filter>
<filter id="filter4_d_1708_2353" x="35.4028" y="65.5996" width="75.5779" height="75.5778" filterUnits="userSpaceOnUse" color-interpolation-filters="sRGB">
<feFlood flood-opacity="0" result="BackgroundImageFix"/>
<feColorMatrix in="SourceAlpha" type="matrix" values="0 0 0 0 0 0 0 0 0 0 0 0 0 0 0 0 0 0 127 0" result="hardAlpha"/>
<feOffset dy="2"/>
<feGaussianBlur stdDeviation="2"/>
<feComposite in2="hardAlpha" operator="out"/>
<feColorMatrix type="matrix" values="0 0 0 0 0 0 0 0 0 0 0 0 0 0 0 0 0 0 0.25 0"/>
<feBlend mode="normal" in2="BackgroundImageFix" result="effect1_dropShadow_1708_2353"/>
<feBlend mode="normal" in="SourceGraphic" in2="effect1_dropShadow_1708_2353" result="shape"/>
</filter>
<filter id="filter5_d_1708_2353" x="49.4707" y="81.8093" width="47.5623" height="47.5623" filterUnits="userSpaceOnUse" color-interpolation-filters="sRGB">
<feFlood flood-opacity="0" result="BackgroundImageFix"/>
<feColorMatrix in="SourceAlpha" type="matrix" values="0 0 0 0 0 0 0 0 0 0 0 0 0 0 0 0 0 0 127 0" result="hardAlpha"/>
<feOffset dy="4"/>
<feGaussianBlur stdDeviation="2"/>
<feComposite in2="hardAlpha" operator="out"/>
<feColorMatrix type="matrix" values="0 0 0 0 0 0 0 0 0 0 0 0 0 0 0 0 0 0 0.25 0"/>
<feBlend mode="normal" in2="BackgroundImageFix" result="effect1_dropShadow_1708_2353"/>
<feBlend mode="normal" in="SourceGraphic" in2="effect1_dropShadow_1708_2353" result="shape"/>
</filter>
<filter id="filter6_ddddd_1708_2353" x="57.1819" y="89.7491" width="30.6414" height="47.1317" filterUnits="userSpaceOnUse" color-interpolation-filters="sRGB">
<feFlood flood-opacity="0" result="BackgroundImageFix"/>
<feColorMatrix in="SourceAlpha" type="matrix" values="0 0 0 0 0 0 0 0 0 0 0 0 0 0 0 0 0 0 127 0" result="hardAlpha"/>
<feOffset/>
<feColorMatrix type="matrix" values="0 0 0 0 0 0 0 0 0 0 0 0 0 0 0 0 0 0 0.1 0"/>
<feBlend mode="normal" in2="BackgroundImageFix" result="effect1_dropShadow_1708_2353"/>
<feColorMatrix in="SourceAlpha" type="matrix" values="0 0 0 0 0 0 0 0 0 0 0 0 0 0 0 0 0 0 127 0" result="hardAlpha"/>
<feOffset dy="1"/>
<feGaussianBlur stdDeviation="1"/>
<feColorMatrix type="matrix" values="0 0 0 0 0 0 0 0 0 0 0 0 0 0 0 0 0 0 0.1 0"/>
<feBlend mode="normal" in2="effect1_dropShadow_1708_2353" result="effect2_dropShadow_1708_2353"/>
<feColorMatrix in="SourceAlpha" type="matrix" values="0 0 0 0 0 0 0 0 0 0 0 0 0 0 0 0 0 0 127 0" result="hardAlpha"/>
<feOffset dy="5"/>
<feGaussianBlur stdDeviation="2.5"/>
<feColorMatrix type="matrix" values="0 0 0 0 0 0 0 0 0 0 0 0 0 0 0 0 0 0 0.09 0"/>
<feBlend mode="normal" in2="effect2_dropShadow_1708_2353" result="effect3_dropShadow_1708_2353"/>
<feColorMatrix in="SourceAlpha" type="matrix" values="0 0 0 0 0 0 0 0 0 0 0 0 0 0 0 0 0 0 127 0" result="hardAlpha"/>
<feOffset dy="10"/>
<feGaussianBlur stdDeviation="3"/>
<feColorMatrix type="matrix" values="0 0 0 0 0 0 0 0 0 0 0 0 0 0 0 0 0 0 0.05 0"/>
<feBlend mode="normal" in2="effect3_dropShadow_1708_2353" result="effect4_dropShadow_1708_2353"/>
<feColorMatrix in="SourceAlpha" type="matrix" values="0 0 0 0 0 0 0 0 0 0 0 0 0 0 0 0 0 0 127 0" result="hardAlpha"/>
<feOffset dy="18"/>
<feGaussianBlur stdDeviation="3.5"/>
<feColorMatrix type="matrix" values="0 0 0 0 0 0 0 0 0 0 0 0 0 0 0 0 0 0 0.01 0"/>
<feBlend mode="normal" in2="effect4_dropShadow_1708_2353" result="effect5_dropShadow_1708_2353"/>
<feBlend mode="normal" in="SourceGraphic" in2="effect5_dropShadow_1708_2353" result="shape"/>
</filter>
<linearGradient id="paint0_linear_1708_2353" x1="88.66" y1="187.569" x2="92.57" y2="-84.1509" gradientUnits="userSpaceOnUse">
<stop offset="0.2" stop-color="white"/>
<stop offset="0.63" stop-color="#F4F3F5"/>
<stop offset="1" stop-color="#E8E6DF"/>
</linearGradient>
<linearGradient id="paint1_linear_1708_2353" x1="86.9999" y1="19" x2="90" y2="180.68" gradientUnits="userSpaceOnUse">
<stop offset="0.2" stop-color="white"/>
<stop offset="0.63" stop-color="#F4F3F5"/>
<stop offset="1" stop-color="#E8E6DF"/>
</linearGradient>
<linearGradient id="paint2_linear_1708_2353" x1="93.2616" y1="-9.75414" x2="90.0344" y2="197.151" gradientUnits="userSpaceOnUse">
<stop offset="0.00520833" stop-color="#F8DF70"/>
<stop offset="0.192708" stop-color="#F2CC40"/>
<stop offset="0.583333" stop-color="#E7B116"/>
<stop offset="0.78125" stop-color="#E0A310"/>
<stop offset="0.942708" stop-color="#CA810E"/>
</linearGradient>
<linearGradient id="paint3_linear_1708_2353" x1="89.1313" y1="53.4231" x2="89.1451" y2="67.5357" gradientUnits="userSpaceOnUse">
<stop offset="0.01" stop-color="#E0A310"/>
<stop offset="1" stop-color="#CA810E"/>
</linearGradient>
<linearGradient id="paint4_linear_1708_2353" x1="126.61" y1="71.6265" x2="126.796" y2="81.9412" gradientUnits="userSpaceOnUse">
<stop stop-color="#F8E17C"/>
<stop offset="0.5302" stop-color="#F7D855"/>
<stop offset="1" stop-color="#F7D855"/>
</linearGradient>
<linearGradient id="paint5_linear_1708_2353" x1="126.729" y1="92.0139" x2="126.867" y2="104.626" gradientUnits="userSpaceOnUse">
<stop offset="0.01" stop-color="#F3CC3E"/>
<stop offset="1" stop-color="#E6B122"/>
</linearGradient>
<linearGradient id="paint6_linear_1708_2353" x1="126.775" y1="110.785" x2="126.939" y2="134.406" gradientUnits="userSpaceOnUse">
<stop offset="0.01" stop-color="#DFA426"/>
<stop offset="1" stop-color="#C9822A"/>
</linearGradient>
<linearGradient id="paint7_linear_1708_2353" x1="74.4833" y1="61.2725" x2="73.4419" y2="140.598" gradientUnits="userSpaceOnUse">
<stop offset="0.00520833" stop-color="#F8DF70"/>
<stop offset="0.192708" stop-color="#F2CC40"/>
<stop offset="0.583333" stop-color="#E7B116"/>
<stop offset="0.78125" stop-color="#E0A310"/>
<stop offset="0.942708" stop-color="#CA810E"/>
</linearGradient>
<radialGradient id="paint8_radial_1708_2353" cx="0" cy="0" r="1" gradientUnits="userSpaceOnUse" gradientTransform="translate(53.4715 88.1173) rotate(48.6382) scale(58.7942 116.538)">
<stop offset="0.00520833" stop-color="#F8DF70"/>
<stop offset="0.192708" stop-color="#F2CC40"/>
<stop offset="0.583333" stop-color="#E7B116"/>
<stop offset="0.78125" stop-color="#E0A310"/>
<stop offset="0.942708" stop-color="#CA810E"/>
</radialGradient>
<linearGradient id="paint9_linear_1708_2353" x1="76.7724" y1="92.6819" x2="76.941" y2="110.216" gradientUnits="userSpaceOnUse">
<stop offset="0.00753769" stop-color="#E0A310"/>
<stop offset="1" stop-color="#CA810E"/>
</linearGradient>
<linearGradient id="paint10_linear_1708_2353" x1="72.1879" y1="96.7566" x2="72.6936" y2="115.302" gradientUnits="userSpaceOnUse">
<stop offset="0.00753769" stop-color="#F2CC40"/>
<stop offset="1" stop-color="#E7B116"/>
</linearGradient>
<linearGradient id="paint11_linear_1708_2353" x1="67.9551" y1="102.134" x2="68.4608" y2="114.104" gradientUnits="userSpaceOnUse">
<stop stop-color="#F8E17B"/>
<stop offset="0.5302" stop-color="#F6D856"/>
<stop offset="1" stop-color="#F6D856"/>
</linearGradient>
</defs>
</svg>
