<svg width="180" height="190" viewBox="0 0 180 190" fill="none" xmlns="http://www.w3.org/2000/svg">
<g clip-path="url(#clip0_1511_19259)">
<path d="M89.9999 188.999C93.0816 188.994 96.1024 188.139 98.73 186.529L160.73 148.869C163.517 147.11 165.807 144.666 167.383 141.771C168.958 138.875 169.766 135.625 169.73 132.329V57.6193C169.763 54.3239 168.954 51.0747 167.379 48.1799C165.804 45.2852 163.515 42.841 160.73 41.0792L98.73 3.41919C96.0958 1.83381 93.0794 0.996094 90.0049 0.996094C86.9304 0.996094 83.9141 1.83381 81.2799 3.41919L19.2799 41.0992C16.4935 42.8596 14.2038 45.3034 12.6285 48.1985C11.0532 51.0935 10.2447 54.3435 10.2799 57.6392V132.339C10.2614 135.122 10.8361 137.877 11.9655 140.42C13.0949 142.963 14.7532 145.237 16.83 147.089V147.089L81.24 186.519C83.8769 188.134 86.9076 188.993 89.9999 188.999V188.999ZM90.6499 7.99927C92.6499 7.99927 95.0799 9.20916 96.7899 10.2592L157.55 47.4492C161.3 49.7292 163.42 56.3292 163.42 61.0792L162.79 132.379C162.79 137.129 159.59 141.379 155.79 143.679L95.3899 180.059C91.9599 182.149 89.17 182.149 85.73 180.059L24.5199 143.589C20.7699 141.309 17.7499 137.109 17.7499 132.379V58.6892C17.7817 56.3234 18.3905 54.0012 19.5232 51.924C20.6559 49.8467 22.2784 48.0772 24.2499 46.7692L84.83 10.2092C86.58 9.16923 88.6999 7.94922 90.6499 7.94922V7.99927Z" fill="url(#paint0_linear_1511_19259)"/>
<path fill-rule="evenodd" clip-rule="evenodd" d="M97.8999 11.5302C95.5272 10.0601 92.7912 9.28125 89.9999 9.28125C87.2086 9.28125 84.4728 10.0601 82.1 11.5302L25.97 45.8602C23.4434 47.4716 21.3703 49.7017 19.9474 52.3391C18.5246 54.9765 17.7992 57.9337 17.84 60.9302V129.03C17.8002 132.026 18.526 134.983 19.9488 137.62C21.3715 140.258 23.4441 142.488 25.97 144.1L82.1 178.43C84.4728 179.9 87.2086 180.679 89.9999 180.679C92.7912 180.679 95.5272 179.9 97.8999 178.43L154.03 144.1C156.555 142.487 158.626 140.256 160.049 137.619C161.471 134.982 162.198 132.026 162.16 129.03V60.9302C162.198 57.9342 161.471 54.9781 160.049 52.3412C158.626 49.7043 156.555 47.4737 154.03 45.8602L97.8999 11.5302Z" fill="url(#paint1_linear_1511_19259)"/>
<path d="M22.3101 120.18L31.54 125.47L22.39 130.73L17.79 128.09V128.62L21.9501 131.01L18.27 133.13L18.41 133.56L22.41 131.27L31.6001 136.55L22.4801 141.79L20.8301 140.84L21.04 141.47L89.55 181.07L89.9801 180.78L80.65 175.4L89.92 170.07L99.1201 175.35L99.53 175.07L90.38 169.8L99.6101 164.49L108.97 169.86L109.2 169.45L100.08 164.23L109.2 158.99L118.44 164.3L118.77 163.94L109.67 158.71L118.87 153.43L128.06 158.71L128.6 158.5L119.31 153.17L128.54 147.87L137.68 153.12L138.22 152.91L128.99 147.61L138.13 142.35L147.28 147.61L147.81 147.4L138.58 142.1L147.81 136.79L156.9 142.02L157.43 141.81L148.25 136.54L157.43 131.26L162.12 133.95V133.46L157.85 131L162.39 128.39V127.86L157.39 130.75L148.22 125.48L157.48 120.15L162.66 123.15V122.64L119.36 97.6399L100.1 86.5199L99.91 86.45L90.52 81.0299L90.0901 80.75L18.3101 121.97V122.51L22.3101 120.18ZM22.8401 130.99L31.9801 125.72L41.2001 131.01L32.03 136.28L22.8401 130.99ZM80.67 130.99L89.9 125.69L99.04 130.93L89.8101 136.24L80.67 130.99ZM89.3701 136.5L80.16 141.79L71.02 136.54L80.2301 131.25L89.3701 136.5ZM90.3701 125.43L99.52 120.17L108.65 125.42L99.5 130.68L90.3701 125.43ZM89.92 125.17L80.6901 119.87L89.8501 114.61L99.0801 119.91L89.92 125.17ZM89.4801 125.43L80.25 130.73L71.02 125.43L80.25 120.13L89.4801 125.43ZM79.8 130.99L70.5901 136.28L61.3601 130.98L70.5701 125.69L79.8 130.99ZM70.13 136.55L60.9801 141.81L51.7401 136.51L60.9 131.24L70.13 136.55ZM70.5801 136.8L79.7201 142.05L70.5801 147.31L61.42 142.06L70.5801 136.8ZM80.16 142.31L89.39 147.61L80.26 152.86L71.02 147.57L80.16 142.31ZM80.63 142.04L89.8301 136.75L99.0601 142.05L89.8601 147.35L80.63 142.04ZM90.28 136.5L99.5 131.19L108.73 136.49L99.51 141.8L90.28 136.5ZM99.9501 130.93L109.1 125.67L118.33 130.98L109.18 136.24L99.9501 130.93ZM109.54 125.42L118.77 120.11L128 125.42L118.77 130.72L109.54 125.42ZM109.1 125.16L99.9701 119.91L109.2 114.61L118.32 119.86L109.1 125.16ZM99.52 119.66L90.29 114.35L99.52 109.05L108.75 114.35L99.52 119.66ZM89.8501 114.1L80.6901 108.83L89.92 103.53L99.0801 108.79L89.8501 114.1ZM89.4 114.35L80.25 119.62L71.0801 114.35L80.2401 109.09L89.4 114.35ZM79.8 119.87L70.5701 125.17L61.41 119.91L70.64 114.61L79.8 119.87ZM70.13 125.43L60.91 130.73L51.75 125.46L60.9601 120.17L70.13 125.43ZM60.4601 130.99L51.29 136.25L42.1201 130.99L51.3101 125.69L60.4601 130.99ZM50.8301 136.52L41.66 141.79L32.5 136.52L41.66 131.26L50.8301 136.52ZM51.28 136.77L60.52 142.07L51.3301 147.35L42.1001 142.05L51.28 136.77ZM60.9601 142.33L70.1101 147.58L60.91 152.87L51.77 147.61L60.9601 142.33ZM70.5601 147.83L79.79 153.13L70.5801 158.43L61.3601 153.12L70.5601 147.83ZM80.2401 153.39L89.52 158.71L80.3 164.01L71.03 158.68L80.2401 153.39ZM80.7101 153.12L89.8401 147.87L99.1101 153.2L89.9901 158.44L80.7101 153.12ZM90.3 147.6L99.51 142.31L108.78 147.64L99.5801 152.93L90.3 147.6ZM99.9501 142.05L109.18 136.75L118.45 142.08L109.22 147.38L99.9501 142.05ZM109.62 136.49L118.77 131.23L128.04 136.56L118.9 141.82L109.62 136.49ZM119.22 130.98L128.44 125.67L137.72 131L128.49 136.3L119.22 130.98ZM128.89 125.42L138.06 120.14L147.34 125.47L138.16 130.74L128.89 125.42ZM128.44 125.16L119.22 119.86L128.39 114.58L137.62 119.89L128.44 125.16ZM118.77 119.6L109.64 114.35L118.81 109.08L127.94 114.33L118.77 119.6ZM109.2 114.1L99.9701 108.79L109.14 103.53L118.37 108.83L109.2 114.1ZM99.52 108.54L90.3601 103.27L99.53 98.0099L108.69 103.27L99.52 108.54ZM89.92 103.02L80.65 97.6899L89.8 92.4199L99.0801 97.75L89.92 103.02ZM89.4701 103.27L80.2401 108.58L70.9901 103.26L80.2101 97.95L89.4701 103.27ZM79.8 108.83L70.64 114.1L61.4 108.79L70.55 103.52L79.8 108.83ZM70.1901 114.35L60.9601 119.65L51.7301 114.35L60.9501 109.04L70.1901 114.35ZM60.52 119.91L51.3 125.21L42.0801 119.91L51.29 114.61L60.52 119.91ZM50.8501 125.47L41.6801 130.74L32.4601 125.45L41.63 120.17L50.8501 125.47ZM22.8501 142.04L31.9701 136.8L41.13 142.06L31.9901 147.32L22.8501 142.04ZM32.4301 147.58L41.5801 142.32L50.8 147.62L41.63 152.89L32.4301 147.58ZM42.0801 153.15L51.25 147.88L60.4 153.13L51.2001 158.42L42.0801 153.15ZM51.65 158.68L60.8401 153.39L70.0701 158.69L60.8501 163.99L51.65 158.68ZM61.3 164.25L70.52 158.95L79.79 164.28L70.55 169.59L61.3 164.25ZM80.13 175.13L70.9901 169.85L80.2401 164.53L89.4 169.8L80.13 175.13ZM89.8501 169.54L80.6901 164.27L89.92 158.97L99.0901 164.23L89.8501 169.54ZM99.5601 163.96L90.38 158.7L99.51 153.45L108.67 158.72L99.5601 163.96ZM109.14 158.45L99.9801 153.18L109.17 147.89L118.34 153.16L109.14 158.45ZM118.79 152.9L109.62 147.64L118.85 142.33L128.01 147.6L118.79 152.9ZM128.46 147.34L119.29 142.08L128.44 136.82L137.61 142.09L128.46 147.34ZM138.05 141.83L128.89 136.56L138.11 131.26L147.28 136.53L138.05 141.83ZM156.9 130.99L147.73 136.27L138.56 131L147.73 125.72L156.9 130.99ZM156.99 119.89L147.73 125.21L138.46 119.88L147.74 114.54L156.99 119.89ZM147.3 114.29L138.01 119.63L128.78 114.33L138.09 108.97L147.3 114.29ZM137.65 108.72L128.34 114.07L119.21 108.83L128.55 103.46L137.65 108.72ZM128.1 103.2L118.76 108.57L109.53 103.27L118.9 97.8899L128.1 103.2ZM118.45 97.6299L109.09 103.01L99.92 97.75L109.31 92.36L118.45 97.6299ZM108.87 92.1L99.4801 97.49L90.2001 92.1699L99.6001 86.75L108.87 92.1ZM90.0601 81.24L99.16 86.49L89.75 91.9099L80.6101 86.6599L90.0601 81.24ZM80.17 86.9199L89.3101 92.1699L80.16 97.4399L71.01 92.1799L80.17 86.9199ZM70.5601 92.4299L79.7101 97.6899L70.4901 103L61.3301 97.74L70.5601 92.4299ZM60.88 97.99L70.05 103.26L60.9 108.53L51.7201 103.26L60.88 97.99ZM51.28 103.51L60.4501 108.79L51.2401 114.09L42.04 108.81L51.28 103.51ZM41.6001 109.07L50.79 114.35L41.5801 119.65L32.38 114.37L41.6001 109.07ZM31.9301 114.62L41.13 119.91L31.9601 125.2L22.7301 119.9L31.9301 114.62Z" fill="white"/>
<path fill-rule="evenodd" clip-rule="evenodd" d="M90.4301 10.75C92.1101 10.75 94.0001 11.62 96.0601 12.87L154.54 48.4099C156.432 49.6229 157.982 51.2999 159.043 53.2814C160.104 55.2628 160.64 57.4828 160.6 59.73V130.21C160.639 132.457 160.102 134.677 159.042 136.658C157.981 138.639 156.431 140.316 154.54 141.53L96.0701 177.07C94.4626 178.327 92.4807 179.01 90.4401 179.01C88.3995 179.01 86.4176 178.327 84.8101 177.07L26.3101 141.54C24.5275 140.587 23.0038 139.214 21.8702 137.54C20.8702 135.94 20.25 133.72 20.25 130.26V59.7799C20.2103 57.5328 20.7464 55.3129 21.8072 53.3314C22.8679 51.35 24.418 49.673 26.3101 48.46L84.7701 12.9199C86.8801 11.6299 88.7401 10.75 90.4301 10.75ZM98.1401 180.5L156.61 144.96C159.093 143.392 161.132 141.214 162.532 138.633C163.933 136.053 164.648 133.156 164.61 130.22V59.74C164.648 56.8041 163.933 53.9074 162.532 51.3268C161.132 48.7462 159.093 46.5679 156.61 45L98.1401 9.45996C96.0301 8.17996 93.3201 6.75 90.4301 6.75C87.5401 6.75 84.8201 8.18995 82.7301 9.44995L24.26 45C21.7775 46.5679 19.7386 48.7462 18.338 51.3268C16.9374 53.9074 16.2219 56.8041 16.26 59.74V130.22C16.1077 133.484 16.8697 136.726 18.4601 139.58C19.9151 141.819 21.9006 143.663 24.2401 144.95L82.7001 180.49C84.9349 182.138 87.6385 183.027 90.4151 183.027C93.1917 183.027 95.8953 182.138 98.13 180.49L98.1401 180.5Z" fill="url(#paint2_linear_1511_19259)"/>
<g filter="url(#filter0_d_1511_19259)">
<path d="M51.7629 135.344H150.388C151.464 135.344 152.344 134.464 152.344 133.388V56.3879H49.8074V133.388C49.8074 134.464 50.6874 135.344 51.7629 135.344Z" fill="#F2F2F2"/>
</g>
<path d="M49.8074 64.9111H152.344V55.72C152.344 54.8889 151.676 54.2207 150.844 54.2207H51.3066C50.4755 54.2207 49.8074 54.8889 49.8074 55.72V64.9111Z" fill="url(#paint3_linear_1511_19259)"/>
<path d="M145.853 61.4306C146.894 61.4306 147.745 60.5909 147.745 59.5383C147.745 58.4857 146.882 57.6578 145.853 57.6578C144.812 57.6578 143.961 58.4975 143.961 59.5501C143.961 60.6027 144.789 61.4306 145.853 61.4306Z" fill="white"/>
<path d="M84.012 86.313V104.931C84.012 106.036 83.1165 106.931 82.012 106.931H74.6914" stroke="#78787D" stroke-width="0.5" stroke-miterlimit="10" stroke-linejoin="round"/>
<path d="M84.0066 102.235V85.4451C84.0066 84.3405 83.1112 83.4451 82.0066 83.4451H74.7827" stroke="#78787D" stroke-width="0.5" stroke-miterlimit="10" stroke-linejoin="round"/>
<path d="M90.7197 95.2156L74.8435 95.2156" stroke="#78787D" stroke-width="0.5" stroke-miterlimit="10" stroke-linejoin="round"/>
<path d="M97.257 102.118H104.645C105.749 102.118 106.645 101.222 106.645 100.118V88.3105C106.645 87.206 107.54 86.3105 108.645 86.3105H114.818" stroke="#78787D" stroke-width="0.5" stroke-miterlimit="10" stroke-linejoin="round"/>
<path d="M121.021 90.6349H128.409C129.513 90.6349 130.409 89.7395 130.409 88.6349V86.6808C130.409 85.5762 131.304 84.6808 132.409 84.6808H138.582" stroke="#78787D" stroke-width="0.5" stroke-miterlimit="10" stroke-linejoin="round"/>
<path d="M139.749 106.115H132.361C131.257 106.115 130.361 105.219 130.361 104.115V97.3871C130.361 96.2825 129.466 95.3871 128.361 95.3871H122.188" stroke="#78787D" stroke-width="0.5" stroke-miterlimit="10" stroke-linejoin="round"/>
<g filter="url(#filter1_ddddd_1511_19259)">
<path d="M146.882 96.2774H133.924C133.713 96.278 133.504 96.2368 133.309 96.1563C133.114 96.0758 132.937 95.9575 132.787 95.8082C132.638 95.659 132.52 95.4817 132.439 95.2866C132.359 95.0915 132.318 94.8824 132.318 94.6714V81.4691C132.318 81.258 132.359 81.0489 132.439 80.8538C132.52 80.6587 132.638 80.4814 132.787 80.3322C132.937 80.183 133.114 80.0647 133.309 79.9842C133.504 79.9037 133.713 79.8625 133.924 79.863H146.878C147.089 79.8625 147.298 79.9037 147.493 79.9842C147.688 80.0647 147.865 80.183 148.015 80.3322C148.164 80.4814 148.282 80.6587 148.363 80.8538C148.443 81.0489 148.484 81.258 148.484 81.4691V94.6714C148.484 94.8821 148.443 95.0908 148.363 95.2857C148.283 95.4805 148.165 95.6576 148.016 95.8068C147.867 95.9559 147.691 96.0743 147.496 96.1551C147.301 96.2358 147.093 96.2774 146.882 96.2774Z" fill="url(#paint4_linear_1511_19259)"/>
</g>
<g filter="url(#filter2_ddddd_1511_19259)">
<path d="M146.882 112.12H133.924C133.713 112.121 133.504 112.079 133.309 111.999C133.114 111.918 132.937 111.8 132.787 111.651C132.638 111.502 132.52 111.324 132.439 111.129C132.359 110.934 132.318 110.725 132.318 110.514V101.948C132.318 101.737 132.359 101.528 132.439 101.333C132.52 101.138 132.638 100.961 132.787 100.812C132.937 100.662 133.114 100.544 133.309 100.464C133.504 100.383 133.713 100.342 133.924 100.342H146.878C147.089 100.342 147.298 100.383 147.493 100.464C147.688 100.544 147.865 100.662 148.015 100.812C148.164 100.961 148.282 101.138 148.363 101.333C148.443 101.528 148.484 101.737 148.484 101.948V110.514C148.484 110.725 148.443 110.933 148.363 111.128C148.283 111.323 148.165 111.5 148.016 111.649C147.867 111.798 147.691 111.917 147.496 111.998C147.301 112.078 147.093 112.12 146.882 112.12Z" fill="url(#paint5_linear_1511_19259)"/>
</g>
<g filter="url(#filter3_ddddd_1511_19259)">
<path d="M124.655 99.8468H111.09C110.74 99.8456 110.404 99.7058 110.156 99.4579C109.908 99.2099 109.768 98.8739 109.767 98.5232V81.1856C109.767 80.8346 109.906 80.498 110.155 80.2497C110.403 80.0015 110.739 79.8621 111.09 79.8621H124.622C124.973 79.8621 125.309 80.0015 125.557 80.2497C125.806 80.498 125.945 80.8346 125.945 81.1856V98.5611C125.948 98.7311 125.917 98.8999 125.853 99.0574C125.789 99.215 125.694 99.3581 125.573 99.4781C125.453 99.5981 125.31 99.6926 125.152 99.756C124.994 99.8193 124.825 99.8502 124.655 99.8468Z" fill="url(#paint6_linear_1511_19259)"/>
</g>
<g filter="url(#filter4_ddddd_1511_19259)">
<path d="M102.104 109.542H88.5392C88.1885 109.541 87.8525 109.401 87.6045 109.153C87.3565 108.905 87.2167 108.569 87.2156 108.218V81.1856C87.2156 80.8346 87.355 80.498 87.6032 80.2497C87.8515 80.0015 88.1881 79.8621 88.5392 79.8621H102.07C102.421 79.8621 102.758 80.0015 103.006 80.2497C103.254 80.498 103.394 80.8346 103.394 81.1856V108.256C103.397 108.426 103.365 108.595 103.301 108.753C103.238 108.91 103.143 109.053 103.022 109.173C102.902 109.293 102.758 109.388 102.601 109.451C102.443 109.514 102.274 109.545 102.104 109.542Z" fill="url(#paint7_linear_1511_19259)"/>
</g>
<path d="M110.189 87.1379C110.35 87.1374 110.507 87.0892 110.641 86.9994C110.774 86.9095 110.878 86.7821 110.939 86.6332C111 86.4843 111.016 86.3206 110.984 86.1628C110.952 86.0051 110.874 85.8603 110.76 85.7468C110.646 85.6334 110.501 85.5563 110.343 85.5254C110.185 85.4945 110.021 85.5111 109.873 85.5732C109.724 85.6352 109.597 85.74 109.508 85.8741C109.419 86.0082 109.372 86.1657 109.373 86.3267C109.372 86.4339 109.392 86.5402 109.433 86.6393C109.474 86.7385 109.534 86.8285 109.61 86.9041C109.686 86.9797 109.777 87.0393 109.876 87.0794C109.975 87.1196 110.082 87.1395 110.189 87.1379V87.1379Z" fill="#1B93EB"/>
<path d="M87.5669 95.9907C87.7279 95.9902 87.8851 95.942 88.0186 95.8522C88.1522 95.7623 88.2561 95.6349 88.3172 95.486C88.3784 95.3371 88.394 95.1734 88.3621 95.0156C88.3302 94.8578 88.2522 94.7131 88.138 94.5996C88.0239 94.4861 87.8786 94.4091 87.7206 94.3782C87.5627 94.3473 87.3991 94.3639 87.2506 94.426C87.102 94.488 86.9753 94.5927 86.8863 94.7269C86.7972 94.861 86.75 95.0185 86.7505 95.1794C86.7496 95.2867 86.7702 95.393 86.811 95.4921C86.8518 95.5913 86.9119 95.6813 86.988 95.7569C87.0641 95.8324 87.1544 95.8921 87.2539 95.9322C87.3533 95.9724 87.4597 95.9923 87.5669 95.9907V95.9907Z" fill="#50E6FF"/>
<path d="M132.668 85.4244C132.829 85.4239 132.986 85.3757 133.12 85.2859C133.253 85.196 133.357 85.0686 133.418 84.9197C133.479 84.7708 133.495 84.6071 133.463 84.4493C133.431 84.2916 133.353 84.1468 133.239 84.0333C133.125 83.9199 132.98 83.8428 132.822 83.8119C132.664 83.781 132.5 83.7976 132.352 83.8597C132.203 83.9217 132.076 84.0265 131.987 84.1606C131.898 84.2947 131.851 84.4522 131.852 84.6132C131.851 84.7204 131.871 84.8267 131.912 84.9258C131.953 85.025 132.013 85.115 132.089 85.1906C132.165 85.2662 132.256 85.3258 132.355 85.3659C132.454 85.4061 132.561 85.426 132.668 85.4244V85.4244Z" fill="#1F56A3"/>
<path d="M132.777 106.963C132.938 106.963 133.096 106.914 133.229 106.824C133.363 106.735 133.467 106.607 133.528 106.458C133.589 106.309 133.604 106.146 133.573 105.988C133.541 105.83 133.463 105.685 133.348 105.572C133.234 105.458 133.089 105.381 132.931 105.35C132.773 105.32 132.61 105.336 132.461 105.398C132.312 105.46 132.186 105.565 132.097 105.699C132.008 105.833 131.96 105.991 131.961 106.152C131.96 106.259 131.981 106.365 132.021 106.464C132.062 106.564 132.122 106.654 132.198 106.729C132.275 106.805 132.365 106.864 132.464 106.905C132.564 106.945 132.67 106.965 132.777 106.963V106.963Z" fill="#1F56A3"/>
<rect x="59.6455" y="80.3481" width="16.0947" height="7.76948" rx="2" fill="url(#paint8_linear_1511_19259)"/>
<rect x="59.6455" y="91.5767" width="16.0947" height="7.76948" rx="2" fill="url(#paint9_linear_1511_19259)"/>
<rect x="59.6455" y="102.806" width="16.0947" height="7.76948" rx="2" fill="url(#paint10_linear_1511_19259)"/>
<g filter="url(#filter5_ddddd_1511_19259)">
<g filter="url(#filter6_ddddd_1511_19259)">
<path d="M63.9237 77.853V77.2519C63.9237 76.5078 63.3227 75.9067 62.5785 75.9067H26.5395C25.7954 75.9067 25.1943 76.5078 25.1943 77.2519V77.9198V78.5304V113.019C25.1943 113.763 25.7954 114.364 26.5395 114.364H62.588C63.3322 114.364 63.9332 113.763 63.9332 113.019V77.9198C63.9332 77.8959 63.9237 77.8768 63.9237 77.853Z" fill="white"/>
</g>
</g>
<g filter="url(#filter7_ddddd_1511_19259)">
<path d="M54.615 110.575H45.1294V82.1987C45.1294 81.1779 45.9589 80.3484 46.9797 80.3484H54.615C55.6359 80.3484 56.4654 81.1779 56.4654 82.1987V108.725C56.4654 109.745 55.6359 110.575 54.615 110.575Z" fill="url(#paint11_linear_1511_19259)"/>
<path d="M48.4726 110.575H38.7488V89.6763C38.7488 88.7873 39.4719 88.0642 40.3609 88.0642H48.4684C49.3574 88.0642 50.0805 88.7873 50.0805 89.6763V108.958C50.0848 109.851 49.3616 110.575 48.4726 110.575Z" fill="url(#paint12_linear_1511_19259)"/>
<path d="M41.8968 110.575H34.7634C33.6022 110.575 32.6621 109.635 32.6621 108.474V97.5714C32.6621 96.4102 33.6022 95.4701 34.7634 95.4701H41.901C43.0623 95.4701 44.0024 96.4102 44.0024 97.5714V108.474C43.9981 109.635 43.058 110.575 41.8968 110.575Z" fill="url(#paint13_linear_1511_19259)"/>
</g>
</g>
<defs>
<filter id="filter0_d_1511_19259" x="45.8074" y="54.3879" width="110.536" height="86.9556" filterUnits="userSpaceOnUse" color-interpolation-filters="sRGB">
<feFlood flood-opacity="0" result="BackgroundImageFix"/>
<feColorMatrix in="SourceAlpha" type="matrix" values="0 0 0 0 0 0 0 0 0 0 0 0 0 0 0 0 0 0 127 0" result="hardAlpha"/>
<feOffset dy="2"/>
<feGaussianBlur stdDeviation="2"/>
<feComposite in2="hardAlpha" operator="out"/>
<feColorMatrix type="matrix" values="0 0 0 0 0 0 0 0 0 0 0 0 0 0 0 0 0 0 0.25 0"/>
<feBlend mode="normal" in2="BackgroundImageFix" result="effect1_dropShadow_1511_19259"/>
<feBlend mode="normal" in="SourceGraphic" in2="effect1_dropShadow_1511_19259" result="shape"/>
</filter>
<filter id="filter1_ddddd_1511_19259" x="131.318" y="79.863" width="18.1658" height="20.4144" filterUnits="userSpaceOnUse" color-interpolation-filters="sRGB">
<feFlood flood-opacity="0" result="BackgroundImageFix"/>
<feColorMatrix in="SourceAlpha" type="matrix" values="0 0 0 0 0 0 0 0 0 0 0 0 0 0 0 0 0 0 127 0" result="hardAlpha"/>
<feOffset/>
<feColorMatrix type="matrix" values="0 0 0 0 0 0 0 0 0 0 0 0 0 0 0 0 0 0 0.1 0"/>
<feBlend mode="normal" in2="BackgroundImageFix" result="effect1_dropShadow_1511_19259"/>
<feColorMatrix in="SourceAlpha" type="matrix" values="0 0 0 0 0 0 0 0 0 0 0 0 0 0 0 0 0 0 127 0" result="hardAlpha"/>
<feOffset/>
<feColorMatrix type="matrix" values="0 0 0 0 0 0 0 0 0 0 0 0 0 0 0 0 0 0 0.1 0"/>
<feBlend mode="normal" in2="effect1_dropShadow_1511_19259" result="effect2_dropShadow_1511_19259"/>
<feColorMatrix in="SourceAlpha" type="matrix" values="0 0 0 0 0 0 0 0 0 0 0 0 0 0 0 0 0 0 127 0" result="hardAlpha"/>
<feOffset dy="1"/>
<feGaussianBlur stdDeviation="0.5"/>
<feColorMatrix type="matrix" values="0 0 0 0 0 0 0 0 0 0 0 0 0 0 0 0 0 0 0.09 0"/>
<feBlend mode="normal" in2="effect2_dropShadow_1511_19259" result="effect3_dropShadow_1511_19259"/>
<feColorMatrix in="SourceAlpha" type="matrix" values="0 0 0 0 0 0 0 0 0 0 0 0 0 0 0 0 0 0 127 0" result="hardAlpha"/>
<feOffset dy="2"/>
<feGaussianBlur stdDeviation="0.5"/>
<feColorMatrix type="matrix" values="0 0 0 0 0 0 0 0 0 0 0 0 0 0 0 0 0 0 0.05 0"/>
<feBlend mode="normal" in2="effect3_dropShadow_1511_19259" result="effect4_dropShadow_1511_19259"/>
<feColorMatrix in="SourceAlpha" type="matrix" values="0 0 0 0 0 0 0 0 0 0 0 0 0 0 0 0 0 0 127 0" result="hardAlpha"/>
<feOffset dy="3"/>
<feGaussianBlur stdDeviation="0.5"/>
<feColorMatrix type="matrix" values="0 0 0 0 0 0 0 0 0 0 0 0 0 0 0 0 0 0 0.01 0"/>
<feBlend mode="normal" in2="effect4_dropShadow_1511_19259" result="effect5_dropShadow_1511_19259"/>
<feBlend mode="normal" in="SourceGraphic" in2="effect5_dropShadow_1511_19259" result="shape"/>
</filter>
<filter id="filter2_ddddd_1511_19259" x="131.318" y="100.342" width="18.1658" height="14.7776" filterUnits="userSpaceOnUse" color-interpolation-filters="sRGB">
<feFlood flood-opacity="0" result="BackgroundImageFix"/>
<feColorMatrix in="SourceAlpha" type="matrix" values="0 0 0 0 0 0 0 0 0 0 0 0 0 0 0 0 0 0 127 0" result="hardAlpha"/>
<feOffset/>
<feColorMatrix type="matrix" values="0 0 0 0 0 0 0 0 0 0 0 0 0 0 0 0 0 0 0.1 0"/>
<feBlend mode="normal" in2="BackgroundImageFix" result="effect1_dropShadow_1511_19259"/>
<feColorMatrix in="SourceAlpha" type="matrix" values="0 0 0 0 0 0 0 0 0 0 0 0 0 0 0 0 0 0 127 0" result="hardAlpha"/>
<feOffset/>
<feColorMatrix type="matrix" values="0 0 0 0 0 0 0 0 0 0 0 0 0 0 0 0 0 0 0.1 0"/>
<feBlend mode="normal" in2="effect1_dropShadow_1511_19259" result="effect2_dropShadow_1511_19259"/>
<feColorMatrix in="SourceAlpha" type="matrix" values="0 0 0 0 0 0 0 0 0 0 0 0 0 0 0 0 0 0 127 0" result="hardAlpha"/>
<feOffset dy="1"/>
<feGaussianBlur stdDeviation="0.5"/>
<feColorMatrix type="matrix" values="0 0 0 0 0 0 0 0 0 0 0 0 0 0 0 0 0 0 0.09 0"/>
<feBlend mode="normal" in2="effect2_dropShadow_1511_19259" result="effect3_dropShadow_1511_19259"/>
<feColorMatrix in="SourceAlpha" type="matrix" values="0 0 0 0 0 0 0 0 0 0 0 0 0 0 0 0 0 0 127 0" result="hardAlpha"/>
<feOffset dy="1"/>
<feGaussianBlur stdDeviation="0.5"/>
<feColorMatrix type="matrix" values="0 0 0 0 0 0 0 0 0 0 0 0 0 0 0 0 0 0 0.05 0"/>
<feBlend mode="normal" in2="effect3_dropShadow_1511_19259" result="effect4_dropShadow_1511_19259"/>
<feColorMatrix in="SourceAlpha" type="matrix" values="0 0 0 0 0 0 0 0 0 0 0 0 0 0 0 0 0 0 127 0" result="hardAlpha"/>
<feOffset dy="2"/>
<feGaussianBlur stdDeviation="0.5"/>
<feColorMatrix type="matrix" values="0 0 0 0 0 0 0 0 0 0 0 0 0 0 0 0 0 0 0.01 0"/>
<feBlend mode="normal" in2="effect4_dropShadow_1511_19259" result="effect5_dropShadow_1511_19259"/>
<feBlend mode="normal" in="SourceGraphic" in2="effect5_dropShadow_1511_19259" result="shape"/>
</filter>
<filter id="filter3_ddddd_1511_19259" x="107.767" y="78.8621" width="20.1785" height="26.985" filterUnits="userSpaceOnUse" color-interpolation-filters="sRGB">
<feFlood flood-opacity="0" result="BackgroundImageFix"/>
<feColorMatrix in="SourceAlpha" type="matrix" values="0 0 0 0 0 0 0 0 0 0 0 0 0 0 0 0 0 0 127 0" result="hardAlpha"/>
<feOffset/>
<feColorMatrix type="matrix" values="0 0 0 0 0 0 0 0 0 0 0 0 0 0 0 0 0 0 0.1 0"/>
<feBlend mode="normal" in2="BackgroundImageFix" result="effect1_dropShadow_1511_19259"/>
<feColorMatrix in="SourceAlpha" type="matrix" values="0 0 0 0 0 0 0 0 0 0 0 0 0 0 0 0 0 0 127 0" result="hardAlpha"/>
<feOffset/>
<feGaussianBlur stdDeviation="0.5"/>
<feColorMatrix type="matrix" values="0 0 0 0 0 0 0 0 0 0 0 0 0 0 0 0 0 0 0.1 0"/>
<feBlend mode="normal" in2="effect1_dropShadow_1511_19259" result="effect2_dropShadow_1511_19259"/>
<feColorMatrix in="SourceAlpha" type="matrix" values="0 0 0 0 0 0 0 0 0 0 0 0 0 0 0 0 0 0 127 0" result="hardAlpha"/>
<feOffset dy="1"/>
<feGaussianBlur stdDeviation="0.5"/>
<feColorMatrix type="matrix" values="0 0 0 0 0 0 0 0 0 0 0 0 0 0 0 0 0 0 0.09 0"/>
<feBlend mode="normal" in2="effect2_dropShadow_1511_19259" result="effect3_dropShadow_1511_19259"/>
<feColorMatrix in="SourceAlpha" type="matrix" values="0 0 0 0 0 0 0 0 0 0 0 0 0 0 0 0 0 0 127 0" result="hardAlpha"/>
<feOffset dy="2"/>
<feGaussianBlur stdDeviation="0.5"/>
<feColorMatrix type="matrix" values="0 0 0 0 0 0 0 0 0 0 0 0 0 0 0 0 0 0 0.05 0"/>
<feBlend mode="normal" in2="effect3_dropShadow_1511_19259" result="effect4_dropShadow_1511_19259"/>
<feColorMatrix in="SourceAlpha" type="matrix" values="0 0 0 0 0 0 0 0 0 0 0 0 0 0 0 0 0 0 127 0" result="hardAlpha"/>
<feOffset dy="4"/>
<feGaussianBlur stdDeviation="1"/>
<feColorMatrix type="matrix" values="0 0 0 0 0 0 0 0 0 0 0 0 0 0 0 0 0 0 0.01 0"/>
<feBlend mode="normal" in2="effect4_dropShadow_1511_19259" result="effect5_dropShadow_1511_19259"/>
<feBlend mode="normal" in="SourceGraphic" in2="effect5_dropShadow_1511_19259" result="shape"/>
</filter>
<filter id="filter4_ddddd_1511_19259" x="85.2156" y="78.8621" width="20.1785" height="38.6802" filterUnits="userSpaceOnUse" color-interpolation-filters="sRGB">
<feFlood flood-opacity="0" result="BackgroundImageFix"/>
<feColorMatrix in="SourceAlpha" type="matrix" values="0 0 0 0 0 0 0 0 0 0 0 0 0 0 0 0 0 0 127 0" result="hardAlpha"/>
<feOffset/>
<feColorMatrix type="matrix" values="0 0 0 0 0 0 0 0 0 0 0 0 0 0 0 0 0 0 0.1 0"/>
<feBlend mode="normal" in2="BackgroundImageFix" result="effect1_dropShadow_1511_19259"/>
<feColorMatrix in="SourceAlpha" type="matrix" values="0 0 0 0 0 0 0 0 0 0 0 0 0 0 0 0 0 0 127 0" result="hardAlpha"/>
<feOffset/>
<feGaussianBlur stdDeviation="0.5"/>
<feColorMatrix type="matrix" values="0 0 0 0 0 0 0 0 0 0 0 0 0 0 0 0 0 0 0.1 0"/>
<feBlend mode="normal" in2="effect1_dropShadow_1511_19259" result="effect2_dropShadow_1511_19259"/>
<feColorMatrix in="SourceAlpha" type="matrix" values="0 0 0 0 0 0 0 0 0 0 0 0 0 0 0 0 0 0 127 0" result="hardAlpha"/>
<feOffset dy="1"/>
<feGaussianBlur stdDeviation="0.5"/>
<feColorMatrix type="matrix" values="0 0 0 0 0 0 0 0 0 0 0 0 0 0 0 0 0 0 0.09 0"/>
<feBlend mode="normal" in2="effect2_dropShadow_1511_19259" result="effect3_dropShadow_1511_19259"/>
<feColorMatrix in="SourceAlpha" type="matrix" values="0 0 0 0 0 0 0 0 0 0 0 0 0 0 0 0 0 0 127 0" result="hardAlpha"/>
<feOffset dy="3"/>
<feGaussianBlur stdDeviation="1"/>
<feColorMatrix type="matrix" values="0 0 0 0 0 0 0 0 0 0 0 0 0 0 0 0 0 0 0.05 0"/>
<feBlend mode="normal" in2="effect3_dropShadow_1511_19259" result="effect4_dropShadow_1511_19259"/>
<feColorMatrix in="SourceAlpha" type="matrix" values="0 0 0 0 0 0 0 0 0 0 0 0 0 0 0 0 0 0 127 0" result="hardAlpha"/>
<feOffset dy="6"/>
<feGaussianBlur stdDeviation="1"/>
<feColorMatrix type="matrix" values="0 0 0 0 0 0 0 0 0 0 0 0 0 0 0 0 0 0 0.01 0"/>
<feBlend mode="normal" in2="effect4_dropShadow_1511_19259" result="effect5_dropShadow_1511_19259"/>
<feBlend mode="normal" in="SourceGraphic" in2="effect5_dropShadow_1511_19259" result="shape"/>
</filter>
<filter id="filter5_ddddd_1511_19259" x="22.1943" y="74.9067" width="44.739" height="50.4575" filterUnits="userSpaceOnUse" color-interpolation-filters="sRGB">
<feFlood flood-opacity="0" result="BackgroundImageFix"/>
<feColorMatrix in="SourceAlpha" type="matrix" values="0 0 0 0 0 0 0 0 0 0 0 0 0 0 0 0 0 0 127 0" result="hardAlpha"/>
<feOffset/>
<feColorMatrix type="matrix" values="0 0 0 0 0 0 0 0 0 0 0 0 0 0 0 0 0 0 0.1 0"/>
<feBlend mode="normal" in2="BackgroundImageFix" result="effect1_dropShadow_1511_19259"/>
<feColorMatrix in="SourceAlpha" type="matrix" values="0 0 0 0 0 0 0 0 0 0 0 0 0 0 0 0 0 0 127 0" result="hardAlpha"/>
<feOffset/>
<feGaussianBlur stdDeviation="0.5"/>
<feColorMatrix type="matrix" values="0 0 0 0 0 0 0 0 0 0 0 0 0 0 0 0 0 0 0.1 0"/>
<feBlend mode="normal" in2="effect1_dropShadow_1511_19259" result="effect2_dropShadow_1511_19259"/>
<feColorMatrix in="SourceAlpha" type="matrix" values="0 0 0 0 0 0 0 0 0 0 0 0 0 0 0 0 0 0 127 0" result="hardAlpha"/>
<feOffset dy="2"/>
<feGaussianBlur stdDeviation="1"/>
<feColorMatrix type="matrix" values="0 0 0 0 0 0 0 0 0 0 0 0 0 0 0 0 0 0 0.09 0"/>
<feBlend mode="normal" in2="effect2_dropShadow_1511_19259" result="effect3_dropShadow_1511_19259"/>
<feColorMatrix in="SourceAlpha" type="matrix" values="0 0 0 0 0 0 0 0 0 0 0 0 0 0 0 0 0 0 127 0" result="hardAlpha"/>
<feOffset dy="4"/>
<feGaussianBlur stdDeviation="1.5"/>
<feColorMatrix type="matrix" values="0 0 0 0 0 0 0 0 0 0 0 0 0 0 0 0 0 0 0.05 0"/>
<feBlend mode="normal" in2="effect3_dropShadow_1511_19259" result="effect4_dropShadow_1511_19259"/>
<feColorMatrix in="SourceAlpha" type="matrix" values="0 0 0 0 0 0 0 0 0 0 0 0 0 0 0 0 0 0 127 0" result="hardAlpha"/>
<feOffset dy="8"/>
<feGaussianBlur stdDeviation="1.5"/>
<feColorMatrix type="matrix" values="0 0 0 0 0 0 0 0 0 0 0 0 0 0 0 0 0 0 0.01 0"/>
<feBlend mode="normal" in2="effect4_dropShadow_1511_19259" result="effect5_dropShadow_1511_19259"/>
<feBlend mode="normal" in="SourceGraphic" in2="effect5_dropShadow_1511_19259" result="shape"/>
</filter>
<filter id="filter6_ddddd_1511_19259" x="15.5486" y="73.9776" width="58.0304" height="77.0403" filterUnits="userSpaceOnUse" color-interpolation-filters="sRGB">
<feFlood flood-opacity="0" result="BackgroundImageFix"/>
<feColorMatrix in="SourceAlpha" type="matrix" values="0 0 0 0 0 0 0 0 0 0 0 0 0 0 0 0 0 0 127 0" result="hardAlpha"/>
<feOffset/>
<feColorMatrix type="matrix" values="0 0 0 0 0 0 0 0 0 0 0 0 0 0 0 0 0 0 0.1 0"/>
<feBlend mode="normal" in2="BackgroundImageFix" result="effect1_dropShadow_1511_19259"/>
<feColorMatrix in="SourceAlpha" type="matrix" values="0 0 0 0 0 0 0 0 0 0 0 0 0 0 0 0 0 0 127 0" result="hardAlpha"/>
<feOffset dy="1.92914"/>
<feGaussianBlur stdDeviation="1.92914"/>
<feColorMatrix type="matrix" values="0 0 0 0 0 0 0 0 0 0 0 0 0 0 0 0 0 0 0.1 0"/>
<feBlend mode="normal" in2="effect1_dropShadow_1511_19259" result="effect2_dropShadow_1511_19259"/>
<feColorMatrix in="SourceAlpha" type="matrix" values="0 0 0 0 0 0 0 0 0 0 0 0 0 0 0 0 0 0 127 0" result="hardAlpha"/>
<feOffset dy="5.78742"/>
<feGaussianBlur stdDeviation="2.89371"/>
<feColorMatrix type="matrix" values="0 0 0 0 0 0 0 0 0 0 0 0 0 0 0 0 0 0 0.09 0"/>
<feBlend mode="normal" in2="effect2_dropShadow_1511_19259" result="effect3_dropShadow_1511_19259"/>
<feColorMatrix in="SourceAlpha" type="matrix" values="0 0 0 0 0 0 0 0 0 0 0 0 0 0 0 0 0 0 127 0" result="hardAlpha"/>
<feOffset dy="15.4331"/>
<feGaussianBlur stdDeviation="4.82285"/>
<feColorMatrix type="matrix" values="0 0 0 0 0 0 0 0 0 0 0 0 0 0 0 0 0 0 0.05 0"/>
<feBlend mode="normal" in2="effect3_dropShadow_1511_19259" result="effect4_dropShadow_1511_19259"/>
<feColorMatrix in="SourceAlpha" type="matrix" values="0 0 0 0 0 0 0 0 0 0 0 0 0 0 0 0 0 0 127 0" result="hardAlpha"/>
<feOffset dy="27.008"/>
<feGaussianBlur stdDeviation="4.82285"/>
<feColorMatrix type="matrix" values="0 0 0 0 0 0 0 0 0 0 0 0 0 0 0 0 0 0 0.01 0"/>
<feBlend mode="normal" in2="effect4_dropShadow_1511_19259" result="effect5_dropShadow_1511_19259"/>
<feBlend mode="normal" in="SourceGraphic" in2="effect5_dropShadow_1511_19259" result="shape"/>
</filter>
<filter id="filter7_ddddd_1511_19259" x="26.6621" y="79.3484" width="35.8032" height="52.2264" filterUnits="userSpaceOnUse" color-interpolation-filters="sRGB">
<feFlood flood-opacity="0" result="BackgroundImageFix"/>
<feColorMatrix in="SourceAlpha" type="matrix" values="0 0 0 0 0 0 0 0 0 0 0 0 0 0 0 0 0 0 127 0" result="hardAlpha"/>
<feOffset/>
<feColorMatrix type="matrix" values="0 0 0 0 0 0 0 0 0 0 0 0 0 0 0 0 0 0 0.1 0"/>
<feBlend mode="normal" in2="BackgroundImageFix" result="effect1_dropShadow_1511_19259"/>
<feColorMatrix in="SourceAlpha" type="matrix" values="0 0 0 0 0 0 0 0 0 0 0 0 0 0 0 0 0 0 127 0" result="hardAlpha"/>
<feOffset dy="1"/>
<feGaussianBlur stdDeviation="1"/>
<feColorMatrix type="matrix" values="0 0 0 0 0 0 0 0 0 0 0 0 0 0 0 0 0 0 0.1 0"/>
<feBlend mode="normal" in2="effect1_dropShadow_1511_19259" result="effect2_dropShadow_1511_19259"/>
<feColorMatrix in="SourceAlpha" type="matrix" values="0 0 0 0 0 0 0 0 0 0 0 0 0 0 0 0 0 0 127 0" result="hardAlpha"/>
<feOffset dy="4"/>
<feGaussianBlur stdDeviation="2"/>
<feColorMatrix type="matrix" values="0 0 0 0 0 0 0 0 0 0 0 0 0 0 0 0 0 0 0.09 0"/>
<feBlend mode="normal" in2="effect2_dropShadow_1511_19259" result="effect3_dropShadow_1511_19259"/>
<feColorMatrix in="SourceAlpha" type="matrix" values="0 0 0 0 0 0 0 0 0 0 0 0 0 0 0 0 0 0 127 0" result="hardAlpha"/>
<feOffset dy="8"/>
<feGaussianBlur stdDeviation="2.5"/>
<feColorMatrix type="matrix" values="0 0 0 0 0 0 0 0 0 0 0 0 0 0 0 0 0 0 0.05 0"/>
<feBlend mode="normal" in2="effect3_dropShadow_1511_19259" result="effect4_dropShadow_1511_19259"/>
<feColorMatrix in="SourceAlpha" type="matrix" values="0 0 0 0 0 0 0 0 0 0 0 0 0 0 0 0 0 0 127 0" result="hardAlpha"/>
<feOffset dy="15"/>
<feGaussianBlur stdDeviation="3"/>
<feColorMatrix type="matrix" values="0 0 0 0 0 0 0 0 0 0 0 0 0 0 0 0 0 0 0.01 0"/>
<feBlend mode="normal" in2="effect4_dropShadow_1511_19259" result="effect5_dropShadow_1511_19259"/>
<feBlend mode="normal" in="SourceGraphic" in2="effect5_dropShadow_1511_19259" result="shape"/>
</filter>
<linearGradient id="paint0_linear_1511_19259" x1="88.66" y1="187.569" x2="92.57" y2="-84.1509" gradientUnits="userSpaceOnUse">
<stop offset="0.2" stop-color="white"/>
<stop offset="0.63" stop-color="#F4F3F5"/>
<stop offset="1" stop-color="#E8E6DF"/>
</linearGradient>
<linearGradient id="paint1_linear_1511_19259" x1="86.9999" y1="19" x2="90" y2="180.68" gradientUnits="userSpaceOnUse">
<stop offset="0.2" stop-color="white"/>
<stop offset="0.63" stop-color="#F4F3F5"/>
<stop offset="1" stop-color="#E8E6DF"/>
</linearGradient>
<linearGradient id="paint2_linear_1511_19259" x1="93.2619" y1="-9.75414" x2="90.0347" y2="197.151" gradientUnits="userSpaceOnUse">
<stop offset="0.00520833" stop-color="#F8DF70"/>
<stop offset="0.192708" stop-color="#F2CC40"/>
<stop offset="0.583333" stop-color="#E7B116"/>
<stop offset="0.78125" stop-color="#E0A310"/>
<stop offset="0.942708" stop-color="#CA810E"/>
</linearGradient>
<linearGradient id="paint3_linear_1511_19259" x1="100.741" y1="55.6318" x2="100.754" y2="68.602" gradientUnits="userSpaceOnUse">
<stop offset="0.01" stop-color="#E0A310"/>
<stop offset="1" stop-color="#CA810E"/>
</linearGradient>
<linearGradient id="paint4_linear_1511_19259" x1="140.348" y1="82.0297" x2="140.538" y2="101.943" gradientUnits="userSpaceOnUse">
<stop offset="0.01" stop-color="#E0A310"/>
<stop offset="1" stop-color="#CA810E"/>
</linearGradient>
<linearGradient id="paint5_linear_1511_19259" x1="140.348" y1="102.509" x2="140.538" y2="122.422" gradientUnits="userSpaceOnUse">
<stop offset="0.01" stop-color="#E0A310"/>
<stop offset="1" stop-color="#CA810E"/>
</linearGradient>
<linearGradient id="paint6_linear_1511_19259" x1="114.041" y1="80.5576" x2="114.614" y2="101.621" gradientUnits="userSpaceOnUse">
<stop offset="0.01" stop-color="#F2CC40"/>
<stop offset="1" stop-color="#E7B116"/>
</linearGradient>
<linearGradient id="paint7_linear_1511_19259" x1="91.4899" y1="80.5576" x2="92.0632" y2="101.621" gradientUnits="userSpaceOnUse">
<stop offset="0.01" stop-color="#F2CC40"/>
<stop offset="1" stop-color="#E7B116"/>
</linearGradient>
<linearGradient id="paint8_linear_1511_19259" x1="67.3053" y1="80.9462" x2="67.4404" y2="89.7669" gradientUnits="userSpaceOnUse">
<stop stop-color="#F8E17B"/>
<stop offset="0.5302" stop-color="#F6D856"/>
<stop offset="1" stop-color="#F6D856"/>
</linearGradient>
<linearGradient id="paint9_linear_1511_19259" x1="67.2648" y1="91.8794" x2="67.3255" y2="101.042" gradientUnits="userSpaceOnUse">
<stop offset="0.00753769" stop-color="#F2CC40"/>
<stop offset="1" stop-color="#E7B116"/>
</linearGradient>
<linearGradient id="paint10_linear_1511_19259" x1="67.5134" y1="103.516" x2="67.5246" y2="109.963" gradientUnits="userSpaceOnUse">
<stop offset="0.00753769" stop-color="#E0A310"/>
<stop offset="1" stop-color="#CA810E"/>
</linearGradient>
<linearGradient id="paint11_linear_1511_19259" x1="50.671" y1="83.1131" x2="50.9122" y2="108.193" gradientUnits="userSpaceOnUse">
<stop offset="0.00753769" stop-color="#E0A310"/>
<stop offset="1" stop-color="#CA810E"/>
</linearGradient>
<linearGradient id="paint12_linear_1511_19259" x1="44.1133" y1="88.9414" x2="44.8367" y2="115.468" gradientUnits="userSpaceOnUse">
<stop offset="0.00753769" stop-color="#F2CC40"/>
<stop offset="1" stop-color="#E7B116"/>
</linearGradient>
<linearGradient id="paint13_linear_1511_19259" x1="38.0592" y1="96.6329" x2="38.7827" y2="113.755" gradientUnits="userSpaceOnUse">
<stop stop-color="#F8E17B"/>
<stop offset="0.5302" stop-color="#F6D856"/>
<stop offset="1" stop-color="#F6D856"/>
</linearGradient>
<clipPath id="clip0_1511_19259">
<rect width="180" height="190" fill="white"/>
</clipPath>
</defs>
</svg>
